<svg xmlns="http://www.w3.org/2000/svg" viewBox="0 0 500 500"><g id="freepik--background-complete--inject-76"><path d="M443.83,378.86l6.54-10.53-3.23-2a3,3,0,0,1-1.37-2.77,16.51,16.51,0,0,0,.06-1.86,3,3,0,0,1,1.54-2.67l3.34-1.79-5.86-10.93-3.34,1.8a3,3,0,0,1-3.08-.2,17.11,17.11,0,0,0-1.57-1,3,3,0,0,1-1.56-2.67l.12-3.79L423,340.08l-.12,3.81a2.94,2.94,0,0,1-1.72,2.56l-.82.41-.79.45a2.94,2.94,0,0,1-3.08,0l-3.25-2-6.53,10.53,3.23,2a3,3,0,0,1,1.37,2.77,14.3,14.3,0,0,0-.06,1.85,3,3,0,0,1-1.54,2.67l-3.35,1.79,5.86,10.93,3.35-1.8a3,3,0,0,1,3.07.2,17,17,0,0,0,1.57,1,3,3,0,0,1,1.56,2.67l-.12,3.8,12.39.39.12-3.8a2.93,2.93,0,0,1,1.72-2.56l.82-.41.79-.45a3,3,0,0,1,3.09,0ZM433.35,371a10.16,10.16,0,1,1,4.15-13.74A10.15,10.15,0,0,1,433.35,371Z" style="fill:#ebebeb"></path><path d="M395,410.67l7.52-4.34-1.33-2.3a2.09,2.09,0,0,1,.07-2.17,9.6,9.6,0,0,0,.65-1.12,2.08,2.08,0,0,1,1.84-1.14h2.65v-8.69h-2.65a2.07,2.07,0,0,1-1.84-1.14,10.5,10.5,0,0,0-.65-1.12,2.09,2.09,0,0,1-.07-2.17l1.33-2.3L395,379.84l-1.33,2.32a2.09,2.09,0,0,1-1.92,1l-.64,0-.63,0a2.05,2.05,0,0,1-1.91-1l-1.34-2.32-7.52,4.34,1.33,2.31a2.07,2.07,0,0,1-.08,2.17,12.27,12.27,0,0,0-.64,1.11,2.07,2.07,0,0,1-1.84,1.14H375.8v8.69h2.66a2.07,2.07,0,0,1,1.84,1.14,12.43,12.43,0,0,0,.64,1.12A2.05,2.05,0,0,1,381,404l-1.33,2.31,7.52,4.34,1.33-2.31a2.05,2.05,0,0,1,1.91-1l.64,0,.64,0a2.09,2.09,0,0,1,1.92,1Zm-3.89-8.3a7.12,7.12,0,1,1,7.12-7.11A7.1,7.1,0,0,1,391.09,402.37Z" style="fill:#ebebeb"></path><path d="M80.11,73.74l-4.34-7.52-2.3,1.33a2.05,2.05,0,0,1-2.16-.08c-.36-.23-.74-.45-1.13-.65A2.06,2.06,0,0,1,69,65V62.33H60.36V65a2.06,2.06,0,0,1-1.14,1.83c-.39.2-.77.42-1.13.65a2.05,2.05,0,0,1-2.16.08l-2.3-1.33-4.34,7.52,2.31,1.33a2.05,2.05,0,0,1,1,1.91c0,.22,0,.43,0,.64s0,.43,0,.64a2.06,2.06,0,0,1-1,1.91l-2.32,1.34L53.63,89l2.31-1.33a2.05,2.05,0,0,1,2.16.07,11.27,11.27,0,0,0,1.12.65,2.07,2.07,0,0,1,1.14,1.83v2.66H69V90.25a2.07,2.07,0,0,1,1.14-1.83,11.27,11.27,0,0,0,1.12-.65,2.07,2.07,0,0,1,2.17-.07L75.77,89l4.34-7.52L77.8,80.18a2.06,2.06,0,0,1-1-1.91c0-.22,0-.43,0-.65s0-.42,0-.64a2.05,2.05,0,0,1,1-1.91Zm-8.3,3.88a7.11,7.11,0,1,1-7.11-7.11A7.11,7.11,0,0,1,71.81,77.62Z" style="fill:#ebebeb"></path><path d="M92.59,312.42l-13.12.28-6.66.11c-2.23.05-4.47,0-6.7.05h-.44v-.45l-.06-11.19v-.5h.5l13.24.06c4.42,0,8.83.11,13.24.17h.28v.27c0,1.9-.09,3.79-.13,5.65Zm0,0-.14-5.65c0-1.87-.11-3.71-.13-5.54l.27.27c-4.41.05-8.82.16-13.24.17l-13.24.06.5-.5,0,11.19-.45-.45c2.18,0,4.36,0,6.55.06l6.58.11Z" style="fill:#ebebeb"></path><path d="M77.82,326.53l-13.12.28-6.66.11c-2.23.05-4.47,0-6.7.05H50.9v-.45l-.06-11.19v-.5h.5l13.24.06c4.41,0,8.83.11,13.24.17h.28v.27c0,1.9-.08,3.79-.13,5.65Zm0,0-.14-5.66c-.05-1.86-.11-3.7-.13-5.53l.27.27c-4.41.05-8.83.16-13.24.17l-13.24.06.5-.5-.05,11.19-.45-.45c2.18,0,4.36,0,6.55.06l6.58.11Z" style="fill:#ebebeb"></path><path d="M312.94,411.89l-13.12.28-6.66.11c-2.23.05-4.46,0-6.7.06H286v-.45L286,400.7v-.5h.5l13.24.06c4.42,0,8.83.12,13.24.17h.28v.27c0,1.9-.09,3.79-.13,5.65Zm0,0-.14-5.65c0-1.87-.11-3.71-.13-5.54l.27.27c-4.41,0-8.82.16-13.24.17l-13.24.06.5-.5,0,11.19-.45-.45c2.19,0,4.36,0,6.55.06l6.58.11Z" style="fill:#ebebeb"></path><path d="M298.17,426l-13.12.28-6.66.11c-2.23.05-4.47,0-6.7.06h-.44V426l-.06-11.19v-.5h.5l13.24.06c4.42,0,8.83.12,13.24.17h.28v.27c0,1.9-.09,3.79-.14,5.65Zm0,0-.14-5.65c0-1.87-.11-3.71-.13-5.54l.27.27c-4.41.05-8.82.16-13.24.17l-13.24.06.5-.5L272.14,426l-.45-.45c2.18,0,4.36,0,6.55.06l6.58.11Z" style="fill:#ebebeb"></path><path d="M283.46,411.89l-13.13.28-6.66.11c-2.22.05-4.46,0-6.69.06h-.45v-.45l0-11.19v-.5h.5l13.24.06c4.41,0,8.83.12,13.24.17h.27v.27c0,1.9-.08,3.79-.13,5.65Zm0,0-.14-5.65c-.05-1.87-.12-3.71-.13-5.54l.27.27c-4.41,0-8.83.16-13.24.17L257,401.2l.5-.5-.06,11.19-.44-.45c2.18,0,4.36,0,6.54.06l6.58.11Z" style="fill:#ebebeb"></path><path d="M448.66,326.53l-13.13.28-6.66.11c-2.22.05-4.46,0-6.69.05h-.45v-.45l-.05-11.19v-.5h.5l13.24.06c4.41,0,8.83.11,13.24.17h.27v.27c0,1.9-.08,3.79-.13,5.65Zm0,0-.14-5.66c0-1.86-.12-3.7-.13-5.53l.27.27c-4.41.05-8.83.16-13.24.17l-13.24.06.5-.5-.06,11.19-.44-.45c2.18,0,4.36,0,6.54.06l6.58.11Z" style="fill:#ebebeb"></path><path d="M433.89,52.85l-13.13.28-6.66.11c-2.22,0-4.46,0-6.69.06H407v-.45l0-11.19v-.5h.51l13.24.06c4.41,0,8.82.12,13.24.17h.27v.27c0,1.9-.09,3.79-.13,5.65Zm0,0-.14-5.65c-.05-1.87-.12-3.71-.14-5.54l.28.27c-4.42,0-8.83.16-13.24.17l-13.24.06.5-.5-.06,11.19-.44-.45c2.18,0,4.35,0,6.54.06l6.58.11Z" style="fill:#ebebeb"></path><path d="M448.66,67l-13.13.28-6.66.11c-2.22.05-4.46,0-6.69.05h-.45V67l-.05-11.19v-.5h.5l13.24.06c4.41,0,8.83.12,13.24.17h.27v.27c0,1.9-.08,3.79-.13,5.65Zm0,0-.14-5.65c0-1.87-.12-3.71-.13-5.54l.27.27c-4.41.05-8.83.16-13.24.17l-13.24.06.5-.5L422.62,67l-.44-.45c2.18,0,4.36,0,6.54.06l6.58.11Z" style="fill:#ebebeb"></path><path d="M92.59,52.85l-13.12.28-6.66.11c-2.23,0-4.47,0-6.7.06h-.44v-.45l-.06-11.19v-.5h.5l13.24.06c4.42,0,8.83.12,13.24.17h.28v.27c0,1.9-.09,3.79-.13,5.65Zm0,0-.14-5.65c0-1.87-.11-3.71-.13-5.54l.27.27c-4.41,0-8.82.16-13.24.17l-13.24.06.5-.5,0,11.19-.45-.45c2.18,0,4.36,0,6.55.06l6.58.11Z" style="fill:#ebebeb"></path><rect x="150.93" y="70.75" width="70.78" height="46.22" style="fill:#dbdbdb"></rect><rect x="150.93" y="119.68" width="70.78" height="46.22" style="fill:#ebebeb"></rect><rect x="157.93" y="128.56" width="6.88" height="6.88" style="fill:#fff"></rect><rect x="166.24" y="128.56" width="6.88" height="6.88" style="fill:#dbdbdb"></rect><rect x="174.56" y="128.56" width="6.88" height="6.88" style="fill:#fff"></rect><rect x="182.87" y="128.56" width="6.88" height="6.88" style="fill:#fff"></rect><rect x="191.19" y="128.56" width="6.88" height="6.88" style="fill:#fff"></rect><rect x="199.51" y="128.56" width="6.88" height="6.88" style="fill:#fff"></rect><rect x="207.82" y="128.56" width="6.88" height="6.88" style="fill:#fff"></rect><rect x="157.93" y="136.94" width="6.88" height="6.88" style="fill:#fff"></rect><rect x="166.24" y="136.94" width="6.88" height="6.88" style="fill:#fff"></rect><rect x="174.56" y="136.94" width="6.88" height="6.88" style="fill:#fff"></rect><rect x="182.87" y="136.94" width="6.88" height="6.88" style="fill:#fff"></rect><rect x="191.19" y="136.94" width="6.88" height="6.88" style="fill:#dbdbdb"></rect><rect x="199.51" y="136.94" width="6.88" height="6.88" style="fill:#fff"></rect><rect x="207.82" y="136.94" width="6.88" height="6.88" style="fill:#fff"></rect><rect x="157.93" y="145.31" width="6.88" height="6.88" style="fill:#fff"></rect><rect x="166.24" y="145.31" width="6.88" height="6.88" style="fill:#fff"></rect><rect x="174.56" y="145.31" width="6.88" height="6.88" style="fill:#fff"></rect><rect x="182.87" y="145.31" width="6.88" height="6.88" style="fill:#fff"></rect><rect x="191.19" y="145.31" width="6.88" height="6.88" style="fill:#fff"></rect><rect x="199.51" y="145.31" width="6.88" height="6.88" style="fill:#fff"></rect><rect x="207.82" y="145.31" width="6.88" height="6.88" style="fill:#fff"></rect><rect x="157.93" y="153.68" width="6.88" height="6.88" style="fill:#fff"></rect><rect x="166.24" y="153.68" width="6.88" height="6.88" style="fill:#fff"></rect><rect x="174.56" y="153.68" width="6.88" height="6.88" style="fill:#fff"></rect><rect x="182.87" y="153.68" width="6.88" height="6.88" style="fill:#fff"></rect><rect x="191.19" y="153.68" width="6.88" height="6.88" style="fill:#fff"></rect><rect x="199.51" y="153.68" width="6.88" height="6.88" style="fill:#fff"></rect><rect x="207.82" y="153.68" width="6.88" height="6.88" style="fill:#fff"></rect><rect x="153.7" y="114.77" width="2.69" height="7.1" style="fill:#c7c7c7"></rect><rect x="159.95" y="114.77" width="2.69" height="7.1" style="fill:#c7c7c7"></rect><rect x="166.21" y="114.77" width="2.69" height="7.1" style="fill:#c7c7c7"></rect><rect x="172.46" y="114.77" width="2.69" height="7.1" style="fill:#c7c7c7"></rect><rect x="178.72" y="114.77" width="2.69" height="7.1" style="fill:#c7c7c7"></rect><rect x="184.97" y="114.77" width="2.69" height="7.1" style="fill:#c7c7c7"></rect><rect x="191.23" y="114.77" width="2.69" height="7.1" style="fill:#c7c7c7"></rect><rect x="197.48" y="114.77" width="2.69" height="7.1" style="fill:#c7c7c7"></rect><rect x="203.74" y="114.77" width="2.69" height="7.1" style="fill:#c7c7c7"></rect><rect x="209.99" y="114.77" width="2.69" height="7.1" style="fill:#c7c7c7"></rect><rect x="216.25" y="114.77" width="2.69" height="7.1" style="fill:#c7c7c7"></rect><polygon points="189.92 334.29 192.59 350.25 210.62 447.64 213.53 447.64 200.41 350.25 198.47 334.29 189.92 334.29" style="fill:#ebebeb"></polygon><polygon points="198.47 334.29 189.92 334.29 192.59 350.25 200.41 350.25 198.47 334.29" style="fill:#c7c7c7"></polygon><polygon points="133.29 447.64 136.2 447.64 154.23 350.25 156.9 334.29 148.34 334.29 146.41 350.25 133.29 447.64" style="fill:#ebebeb"></polygon><polygon points="148.34 334.29 146.41 350.25 154.23 350.25 156.9 334.29 148.34 334.29" style="fill:#c7c7c7"></polygon><polygon points="79.2 447.64 82.11 447.64 100.14 350.25 102.81 334.29 94.25 334.29 92.32 350.25 79.2 447.64" style="fill:#ebebeb"></polygon><polygon points="92.32 350.25 100.14 350.25 102.81 334.29 94.25 334.29 92.32 350.25" style="fill:#c7c7c7"></polygon><polygon points="83.81 341.79 215.96 341.79 215.96 331.07 166.49 327.87 149.86 231.97 88.85 231.97 83.81 341.79" style="fill:#ebebeb"></polygon><polygon points="83.81 341.79 91.02 341.79 95.71 231.97 88.85 231.97 83.81 341.79" style="fill:#c7c7c7"></polygon><rect x="242.24" y="291.43" width="85.42" height="156.94" style="fill:#ebebeb"></rect><rect x="242.24" y="291.43" width="85.42" height="10.23" style="fill:#c7c7c7"></rect><rect x="41.69" y="283.18" width="294.73" height="8.26" transform="translate(378.12 574.62) rotate(180)" style="fill:#ebebeb"></rect><polygon points="50.45 291.43 50.72 301.67 54.33 448.37 60.85 448.37 60.85 291.43 50.45 291.43" style="fill:#ebebeb"></polygon><polygon points="60.85 291.43 50.45 291.43 50.72 301.67 60.85 301.67 60.85 291.43" style="fill:#c7c7c7"></polygon><rect x="213.3" y="291.43" width="28.95" height="156.94" style="fill:#dbdbdb"></rect><rect x="213.3" y="291.43" width="28.95" height="10.23" style="fill:#c7c7c7"></rect></g><g id="freepik--Floor--inject-76"><polygon points="48.22 448.37 98.67 448.13 149.11 448.04 250 447.87 350.89 448.04 401.33 448.13 451.78 448.37 401.33 448.62 350.89 448.7 250 448.87 149.11 448.7 98.67 448.61 48.22 448.37" style="fill:#263238"></polygon></g><g id="freepik--chart-2--inject-76"><rect x="173.58" y="196.67" width="233.17" height="153.12" style="fill:#fff"></rect><path d="M406.75,349.79,173.58,350h-.15v-.16l-.1-153.12v-.25h.25l233.17.16h.09v.09Zm0,0-.09-153.12.09.09-233.17.16.25-.25-.1,153.12-.15-.15Z" style="fill:#263238"></path><path d="M195,241c33.17-.16,66.33-.12,99.5-.19s57.58,0,90.75.19c-33.17.16-57.58.12-90.75.18S228.21,241.2,195,241Z" style="fill:#a6a6a6"></path><path d="M195,256.42c33.17-.16,66.33-.12,99.5-.19s57.58,0,90.75.19c-33.17.16-57.58.12-90.75.19S228.21,256.58,195,256.42Z" style="fill:#a6a6a6"></path><path d="M195,271.81c33.17-.17,66.33-.12,99.5-.19s57.58,0,90.75.19c-33.17.16-57.58.12-90.75.18S228.21,272,195,271.81Z" style="fill:#a6a6a6"></path><path d="M195,287.19c33.17-.16,66.33-.12,99.5-.19s57.58,0,90.75.19c-33.17.16-57.58.12-90.75.19S228.21,287.35,195,287.19Z" style="fill:#a6a6a6"></path><path d="M195,302.58c33.17-.17,66.33-.12,99.5-.19s57.58,0,90.75.19c-33.17.16-57.58.12-90.75.18S228.21,302.74,195,302.58Z" style="fill:#a6a6a6"></path><path d="M215.45,231c.23,14.38.17,28.75.27,43.13-.1,14.37,0,28.75-.27,43.12-.23-14.37-.17-28.75-.27-43.12C215.28,259.78,215.22,245.41,215.45,231Z" style="fill:#a6a6a6"></path><path d="M232.16,231c.23,14.38.18,28.75.27,43.13-.09,14.37,0,28.75-.27,43.12-.22-14.37-.17-28.75-.26-43.12C232,259.78,231.94,245.41,232.16,231Z" style="fill:#a6a6a6"></path><path d="M248.88,231c.23,14.38.17,28.75.27,43.13-.1,14.37,0,28.75-.27,43.12-.23-14.37-.17-28.75-.27-43.12C248.71,259.78,248.65,245.41,248.88,231Z" style="fill:#a6a6a6"></path><path d="M265.59,231c.23,14.38.17,28.75.27,43.13-.09,14.37,0,28.75-.27,43.12-.23-14.37-.17-28.75-.26-43.12C265.42,259.78,265.37,245.41,265.59,231Z" style="fill:#a6a6a6"></path><path d="M282.31,231c.23,14.38.17,28.75.26,43.13-.09,14.37,0,28.75-.26,43.12-.23-14.37-.17-28.75-.27-43.12C282.14,259.78,282.08,245.41,282.31,231Z" style="fill:#a6a6a6"></path><path d="M299,231c.23,14.38.17,28.75.27,43.13-.1,14.37,0,28.75-.27,43.12-.23-14.37-.17-28.75-.26-43.12C298.85,259.78,298.79,245.41,299,231Z" style="fill:#a6a6a6"></path><path d="M315.74,231c.23,14.38.17,28.75.26,43.13-.09,14.37,0,28.75-.26,43.12-.23-14.37-.17-28.75-.27-43.12C315.57,259.78,315.51,245.41,315.74,231Z" style="fill:#a6a6a6"></path><path d="M332.45,231c.23,14.38.17,28.75.27,43.13-.1,14.37,0,28.75-.27,43.12-.23-14.37-.17-28.75-.26-43.12C332.28,259.78,332.22,245.41,332.45,231Z" style="fill:#a6a6a6"></path><path d="M349.17,231c.22,14.38.17,28.75.26,43.13-.09,14.37,0,28.75-.26,43.12-.23-14.37-.18-28.75-.27-43.12C349,259.78,348.94,245.41,349.17,231Z" style="fill:#a6a6a6"></path><path d="M365.88,231c.23,14.38.17,28.75.27,43.13-.1,14.37,0,28.75-.27,43.12-.23-14.37-.17-28.75-.27-43.12C365.71,259.78,365.65,245.41,365.88,231Z" style="fill:#a6a6a6"></path><path d="M382.6,231c.22,14.38.17,28.75.26,43.13-.09,14.37,0,28.75-.26,43.12-.23-14.37-.18-28.75-.27-43.12C382.42,259.78,382.37,245.41,382.6,231Z" style="fill:#a6a6a6"></path><path d="M199,232c.17,14.22.32,28.44.34,42.66l.16,42.65-.5-.35,75.9.09,37.94.07,72.49.19-72.49.2-37.94.07-75.9.09h-.5v-.36l.16-42.65C198.64,260.41,198.79,246.19,199,232Z" style="fill:#a6a6a6"></path><circle cx="248.88" cy="317.58" r="2.05" style="fill:#FFC727"></circle><circle cx="265.59" cy="271.62" r="2.05" style="fill:#FFC727"></circle><circle cx="282.31" cy="271.62" r="2.05" style="fill:#FFC727"></circle><circle cx="299.02" cy="256.42" r="2.05" style="fill:#FFC727"></circle><circle cx="315.74" cy="287.19" r="2.05" style="fill:#FFC727"></circle><circle cx="332.45" cy="287.19" r="2.05" style="fill:#FFC727"></circle><circle cx="349.17" cy="302.76" r="2.05" style="fill:#FFC727"></circle><circle cx="365.88" cy="287.38" r="2.05" style="fill:#FFC727"></circle><circle cx="382.6" cy="317.64" r="2.05" style="fill:#FFC727"></circle><polygon points="382.38 317.76 365.82 287.78 349.17 303.1 332.35 287.44 315.59 287.44 315.52 287.31 298.95 256.82 282.4 271.87 265.77 271.87 249.11 317.66 248.65 317.49 265.42 271.37 282.21 271.37 299.09 256.02 315.89 286.94 332.55 286.94 349.17 302.42 365.94 286.98 366.1 287.26 382.81 317.52 382.38 317.76" style="fill:#FFC727"></polygon><polygon points="382.38 317.76 365.68 287.53 349.17 272.03 332.45 287.53 332.28 287.38 315.64 272.21 299.17 272.06 282.38 303.15 282.14 302.93 265.66 287.59 249.1 317.7 248.66 317.46 265.53 286.79 265.76 287.01 282.24 302.34 298.87 271.56 299.02 271.56 315.83 271.71 315.9 271.78 332.45 286.85 349.17 271.35 366.1 287.26 382.81 317.52 382.38 317.76" style="fill:#263238"></polygon><circle cx="248.88" cy="317.58" r="2.05" style="fill:#263238"></circle><circle cx="265.59" cy="287.19" r="2.05" style="fill:#263238"></circle><circle cx="282.31" cy="302.58" r="2.05" style="fill:#263238"></circle><circle cx="299.02" cy="271.81" r="2.05" style="fill:#263238"></circle><circle cx="315.74" cy="271.99" r="2.05" style="fill:#263238"></circle><circle cx="332.45" cy="287.19" r="2.05" style="fill:#263238"></circle><circle cx="349.17" cy="271.81" r="2.05" style="fill:#263238"></circle><circle cx="365.88" cy="287.38" r="2.05" style="fill:#263238"></circle><circle cx="382.6" cy="317.64" r="2.05" style="fill:#263238"></circle><path d="M200.84,316.94a2,2,0,1,1-2.59-1.31A2,2,0,0,1,200.84,316.94Z" style="fill:#455a64"></path><path d="M217.4,316.94a2,2,0,1,1-2.59-1.31A2,2,0,0,1,217.4,316.94Z" style="fill:#455a64"></path><path d="M234.11,316.94a2,2,0,1,1-2.59-1.31A2,2,0,0,1,234.11,316.94Z" style="fill:#455a64"></path><path d="M250.82,316.94a2,2,0,1,1-2.58-1.31A2,2,0,0,1,250.82,316.94Z" style="fill:#455a64"></path><path d="M267.54,316.94a2,2,0,1,1-2.59-1.31A2,2,0,0,1,267.54,316.94Z" style="fill:#455a64"></path><path d="M284.25,316.94a2,2,0,1,1-2.58-1.31A2,2,0,0,1,284.25,316.94Z" style="fill:#455a64"></path><path d="M301,316.94a2,2,0,1,1-2.59-1.31A2,2,0,0,1,301,316.94Z" style="fill:#455a64"></path><path d="M317.68,316.94a2,2,0,1,1-2.58-1.31A2,2,0,0,1,317.68,316.94Z" style="fill:#455a64"></path><path d="M334.4,316.94a2,2,0,1,1-2.59-1.31A2,2,0,0,1,334.4,316.94Z" style="fill:#455a64"></path><path d="M351.11,316.94a2,2,0,1,1-2.58-1.31A2,2,0,0,1,351.11,316.94Z" style="fill:#455a64"></path><path d="M367.83,316.94a2,2,0,1,1-2.59-1.31A2,2,0,0,1,367.83,316.94Z" style="fill:#455a64"></path><circle cx="382.6" cy="317.64" r="2.05" style="fill:#455a64"></circle><rect x="198.89" y="317.33" width="183.7" height="0.5" style="fill:#455a64"></rect><rect x="198.89" y="326.83" width="4.85" height="4.85" style="fill:#FFC727"></rect><path d="M208.26,329.25a1.87,1.87,0,0,1,3-1.43.29.29,0,1,1-.35.46,1.27,1.27,0,0,0-.82-.28,1.36,1.36,0,0,0-.91.37,1.24,1.24,0,0,0,0,1.77,1.35,1.35,0,0,0,.91.36,1.24,1.24,0,0,0,.82-.28.32.32,0,0,1,.41.06.3.3,0,0,1-.06.41,1.87,1.87,0,0,1-1.17.39A1.85,1.85,0,0,1,208.26,329.25Z" style="fill:#a6a6a6"></path><path d="M212.46,330.71a1.25,1.25,0,0,1-.35-.89,1.29,1.29,0,0,1,.35-.89,1.18,1.18,0,0,1,.87-.39,1.12,1.12,0,0,1,.85.39,1.25,1.25,0,0,1,.36.89,1.22,1.22,0,0,1-.36.89,1.12,1.12,0,0,1-.85.39A1.18,1.18,0,0,1,212.46,330.71Zm.2-.89a.88.88,0,0,0,.18.54.71.71,0,0,0,.49.18.67.67,0,0,0,.47-.18.78.78,0,0,0,.2-.54.76.76,0,0,0-.2-.53.73.73,0,0,0-.47-.19.76.76,0,0,0-.49.19A.85.85,0,0,0,212.66,329.82Z" style="fill:#a6a6a6"></path><path d="M217.52,329.59v1.22a.27.27,0,0,1-.27.27.28.28,0,0,1-.27-.27v-1.22a.52.52,0,0,0-1,0v1.24h0l0,0v0a.29.29,0,0,1-.25.16h0a.28.28,0,0,1-.22-.27v-1.2h0v-.78a.27.27,0,0,1,.27-.28.26.26,0,0,1,.24.16,1,1,0,0,1,.55-.16,1,1,0,0,1,.79.35,1,1,0,0,1,.8-.35,1.06,1.06,0,0,1,1.06,1.07v1.2a.27.27,0,0,1-.27.27.28.28,0,0,1-.28-.27v-1.2a.51.51,0,0,0-.51-.52A.52.52,0,0,0,217.52,329.59Z" style="fill:#a6a6a6"></path><path d="M220.23,331.76v-1.94h0v-1a.27.27,0,0,1,.27-.27.28.28,0,0,1,.28.21,1.31,1.31,0,0,1,.69-.21,1.27,1.27,0,0,1,0,2.54,1.17,1.17,0,0,1-.68-.21v.89a.29.29,0,0,1-.29.28A.28.28,0,0,1,220.23,331.76Zm.56-1.94a.66.66,0,0,0,.2.51.61.61,0,0,0,.48.21.68.68,0,0,0,.48-.21.78.78,0,0,0,.19-.51.85.85,0,0,0-.19-.52.71.71,0,0,0-.48-.2.64.64,0,0,0-.48.2A.71.71,0,0,0,220.79,329.82Z" style="fill:#a6a6a6"></path><path d="M223.79,327.53a.28.28,0,0,1,.29.28v3a.28.28,0,0,1-.29.28.27.27,0,0,1-.27-.28v-3A.27.27,0,0,1,223.79,327.53Z" style="fill:#a6a6a6"></path><path d="M224.8,329.81a1.25,1.25,0,0,1,1.24-1.27,1.22,1.22,0,0,1,1.22,1.18v0a.06.06,0,0,1,0,0,.25.25,0,0,1-.26.21h-1.61a.66.66,0,0,0,.17.33.81.81,0,0,0,.49.23.75.75,0,0,0,.52-.13.3.3,0,0,1,.39,0,.24.24,0,0,1,0,.33,1.28,1.28,0,0,1-.91.33A1.25,1.25,0,0,1,224.8,329.81Zm.55-.25h1.44A.82.82,0,0,0,226,329,.71.71,0,0,0,225.35,329.56Z" style="fill:#a6a6a6"></path><path d="M229,328.82a.29.29,0,0,1-.29.28h-.12v1.42a.29.29,0,0,1,.28.28.28.28,0,0,1-.28.28.57.57,0,0,1-.57-.56V329.1h-.15a.28.28,0,0,1-.27-.28.27.27,0,0,1,.27-.28H228v-.73a.29.29,0,0,1,.57,0v.73h.12A.28.28,0,0,1,229,328.82Z" style="fill:#a6a6a6"></path><path d="M229.51,329.81a1.27,1.27,0,0,1,1.24-1.27,1.23,1.23,0,0,1,1.23,1.18v0a.06.06,0,0,1,0,0,.25.25,0,0,1-.26.21h-1.62a.68.68,0,0,0,.18.33.81.81,0,0,0,.48.23.77.77,0,0,0,.53-.13.29.29,0,0,1,.38,0,.23.23,0,0,1,0,.33,1.29,1.29,0,0,1-2.15-.94Zm.56-.25h1.44a.82.82,0,0,0-.76-.53A.71.71,0,0,0,230.07,329.56Z" style="fill:#a6a6a6"></path><path d="M235.09,330.81a.27.27,0,0,1-.28.27.28.28,0,0,1-.27-.22,1.16,1.16,0,0,1-.69.22,1.27,1.27,0,0,1,0-2.54,1.13,1.13,0,0,1,.68.22v-1a.28.28,0,0,1,.28-.27.27.27,0,0,1,.28.27v2h0Zm-1.24-1.71a.63.63,0,0,0-.47.2.72.72,0,0,0-.21.52.71.71,0,0,0,.21.5.64.64,0,0,0,.47.21.67.67,0,0,0,.48-.21.7.7,0,0,0,.2-.5.72.72,0,0,0-.2-.52A.66.66,0,0,0,233.85,329.1Z" style="fill:#a6a6a6"></path><rect x="246.83" y="326.83" width="4.85" height="4.85" style="fill:#263238"></rect><path d="M256.39,327.81a.27.27,0,0,1,.28-.28.28.28,0,0,1,.28.28v3a.28.28,0,0,1-.28.28.27.27,0,0,1-.28-.28Z" style="fill:#a6a6a6"></path><path d="M260,329.6v1.21a.27.27,0,0,1-.27.27.28.28,0,0,1-.27-.27V329.6a.52.52,0,0,0-.53-.51.5.5,0,0,0-.5.51v1.21a.06.06,0,0,1,0,.05.26.26,0,0,1-.26.22.26.26,0,0,1-.27-.27v-2a.26.26,0,0,1,.27-.27.28.28,0,0,1,.25.16,1,1,0,0,1,.53-.16A1.08,1.08,0,0,1,260,329.6Z" style="fill:#a6a6a6"></path><path d="M260.82,329.53a.31.31,0,0,1,.3-.31h1a.31.31,0,0,1,0,.61h-1A.31.31,0,0,1,260.82,329.53Z" style="fill:#a6a6a6"></path><path d="M264.28,329.7h-.63v1.1a.27.27,0,0,1-.28.28.28.28,0,0,1-.28-.28v-3a.28.28,0,0,1,.28-.28h.91a1.09,1.09,0,1,1,0,2.17Zm-.63-.56h.63a.53.53,0,1,0,0-1.05h-.63Z" style="fill:#a6a6a6"></path><path d="M267.56,328.81a.28.28,0,0,1-.27.27.44.44,0,0,0-.3.1.78.78,0,0,0-.24.24,1.79,1.79,0,0,0-.21.43v1a.27.27,0,0,1-.28.27.27.27,0,0,1-.26-.27v-2a.26.26,0,0,1,.26-.26.26.26,0,0,1,.28.26v0a.5.5,0,0,1,.11-.1,1,1,0,0,1,.64-.2A.26.26,0,0,1,267.56,328.81Z" style="fill:#a6a6a6"></path><path d="M268.33,330.71a1.25,1.25,0,0,1-.35-.89,1.29,1.29,0,0,1,.35-.89,1.19,1.19,0,0,1,.88-.39,1.1,1.1,0,0,1,.84.39,1.25,1.25,0,0,1,.36.89,1.22,1.22,0,0,1-.36.89,1.1,1.1,0,0,1-.84.39A1.19,1.19,0,0,1,268.33,330.71Zm.2-.89a.83.83,0,0,0,.19.54.67.67,0,0,0,.49.18.65.65,0,0,0,.46-.18.78.78,0,0,0,.2-.54.76.76,0,0,0-.2-.53.71.71,0,0,0-.46-.19.72.72,0,0,0-.49.19A.8.8,0,0,0,268.53,329.82Z" style="fill:#a6a6a6"></path><path d="M273.54,329.83v.94a1.22,1.22,0,0,1-1.75,1.1.28.28,0,0,1-.12-.37.27.27,0,0,1,.36-.13.59.59,0,0,0,.29.07.69.69,0,0,0,.67-.54,1.15,1.15,0,0,1-.67.2,1.17,1.17,0,0,1-.86-.38,1.29,1.29,0,0,1-.36-.9,1.32,1.32,0,0,1,.36-.9,1.2,1.2,0,0,1,.86-.38,1.09,1.09,0,0,1,.68.22.28.28,0,0,1,.27-.22.26.26,0,0,1,.27.27v1Zm-.54,0a.83.83,0,0,0-.19-.52.65.65,0,0,0-.49-.21.6.6,0,0,0-.46.21.74.74,0,0,0-.21.52.71.71,0,0,0,.21.53.63.63,0,0,0,.46.2.68.68,0,0,0,.49-.2A.79.79,0,0,0,273,329.82Z" style="fill:#a6a6a6"></path><path d="M276.19,328.81a.28.28,0,0,1-.27.27.44.44,0,0,0-.3.1.78.78,0,0,0-.24.24,1.79,1.79,0,0,0-.21.43v1a.27.27,0,0,1-.28.27.28.28,0,0,1-.27-.27v-2a.27.27,0,0,1,.27-.26.26.26,0,0,1,.28.26v0a.5.5,0,0,1,.11-.1,1,1,0,0,1,.64-.2A.26.26,0,0,1,276.19,328.81Z" style="fill:#a6a6a6"></path><path d="M276.42,329.81a1.27,1.27,0,0,1,1.24-1.27,1.23,1.23,0,0,1,1.23,1.18v0a.06.06,0,0,1,0,0,.25.25,0,0,1-.26.21H277a.68.68,0,0,0,.18.33.81.81,0,0,0,.48.23.78.78,0,0,0,.53-.13.29.29,0,0,1,.38,0,.23.23,0,0,1,0,.33,1.29,1.29,0,0,1-2.15-.94Zm.56-.25h1.44a.84.84,0,0,0-.76-.53A.71.71,0,0,0,277,329.56Z" style="fill:#a6a6a6"></path><path d="M279.57,330.36a.25.25,0,0,1,.38,0,1,1,0,0,0,.56.22.69.69,0,0,0,.35-.1.2.2,0,0,0,.09-.15s0,0,0-.05,0,0-.06-.06a1.06,1.06,0,0,0-.41-.14h0a1.89,1.89,0,0,1-.44-.14.75.75,0,0,1-.35-.29.57.57,0,0,1-.09-.32.72.72,0,0,1,.3-.56,1.11,1.11,0,0,1,.62-.19,1.37,1.37,0,0,1,.77.28.29.29,0,0,1,.08.38.27.27,0,0,1-.38.07.83.83,0,0,0-.47-.19.51.51,0,0,0-.3.09c-.07.05-.08.09-.08.12a.06.06,0,0,0,0,0s0,0,.05.05a1,1,0,0,0,.37.12h0a1.58,1.58,0,0,1,.48.15.79.79,0,0,1,.36.3.63.63,0,0,1,.09.33.71.71,0,0,1-.32.59,1.12,1.12,0,0,1-.66.2,1.46,1.46,0,0,1-.9-.35A.27.27,0,0,1,279.57,330.36Z" style="fill:#a6a6a6"></path><path d="M282,330.36a.25.25,0,0,1,.38,0,1,1,0,0,0,.56.22.69.69,0,0,0,.35-.1.2.2,0,0,0,.09-.15.06.06,0,0,0,0-.05s0,0-.06-.06a1.13,1.13,0,0,0-.41-.14h0a2.15,2.15,0,0,1-.45-.14.81.81,0,0,1-.35-.29.66.66,0,0,1-.08-.32.72.72,0,0,1,.3-.56,1.08,1.08,0,0,1,.62-.19,1.31,1.31,0,0,1,.76.28.27.27,0,0,1,.08.38.26.26,0,0,1-.37.07.86.86,0,0,0-.47-.19.49.49,0,0,0-.3.09c-.07.05-.08.09-.08.12a.06.06,0,0,0,0,0l.05.05a1,1,0,0,0,.37.12h0a1.58,1.58,0,0,1,.48.15.79.79,0,0,1,.36.3.63.63,0,0,1,.09.33.74.74,0,0,1-.32.59,1.12,1.12,0,0,1-.66.2,1.46,1.46,0,0,1-.9-.35A.27.27,0,0,1,282,330.36Z" style="fill:#a6a6a6"></path><rect x="294.77" y="326.83" width="4.85" height="4.85" style="fill:#455a64"></rect><path d="M304.85,330.8a.28.28,0,1,1-.55,0v-2.95h0a.26.26,0,0,1,.11-.24.29.29,0,0,1,.39.06l1.64,2.27v-2.09a.28.28,0,0,1,.55,0v2.95a.27.27,0,0,1-.28.28.3.3,0,0,1-.21-.1l0,0-1.63-2.25Z" style="fill:#a6a6a6"></path><path d="M308.39,330.71a1.25,1.25,0,0,1-.35-.89,1.29,1.29,0,0,1,.35-.89,1.18,1.18,0,0,1,.87-.39,1.12,1.12,0,0,1,.85.39,1.25,1.25,0,0,1,.36.89,1.22,1.22,0,0,1-.36.89,1.12,1.12,0,0,1-.85.39A1.18,1.18,0,0,1,308.39,330.71Zm.2-.89a.88.88,0,0,0,.18.54.71.71,0,0,0,.49.18.67.67,0,0,0,.47-.18.78.78,0,0,0,.2-.54.76.76,0,0,0-.2-.53.73.73,0,0,0-.47-.19.76.76,0,0,0-.49.19A.85.85,0,0,0,308.59,329.82Z" style="fill:#a6a6a6"></path><path d="M312.38,328.82a.3.3,0,0,1-.29.28H312v1.42a.28.28,0,0,1,.28.28.27.27,0,0,1-.28.28.57.57,0,0,1-.56-.56V329.1h-.15a.29.29,0,0,1-.28-.28.28.28,0,0,1,.28-.28h.15v-.73a.28.28,0,0,1,.29-.28.27.27,0,0,1,.27.28v.73h.13A.29.29,0,0,1,312.38,328.82Z" style="fill:#a6a6a6"></path><path d="M314.73,330.2a.27.27,0,0,1,.37,0,1.6,1.6,0,0,0,1,.39,1.1,1.1,0,0,0,.64-.18.48.48,0,0,0,.22-.37.28.28,0,0,0-.05-.16.42.42,0,0,0-.15-.15,1.89,1.89,0,0,0-.7-.24h0a3.09,3.09,0,0,1-.65-.2,1,1,0,0,1-.47-.4.73.73,0,0,1-.12-.41.94.94,0,0,1,.41-.75,1.47,1.47,0,0,1,.87-.27,2,2,0,0,1,1.11.41.26.26,0,0,1-.29.44,1.51,1.51,0,0,0-.82-.33.89.89,0,0,0-.56.18.4.4,0,0,0-.2.32.21.21,0,0,0,0,.14.52.52,0,0,0,.13.13,1.89,1.89,0,0,0,.64.22h0a2.74,2.74,0,0,1,.7.22,1.17,1.17,0,0,1,.51.42.77.77,0,0,1,.12.43,1,1,0,0,1-.44.79,1.57,1.57,0,0,1-.94.29,2.24,2.24,0,0,1-1.3-.51A.28.28,0,0,1,314.73,330.2Z" style="fill:#a6a6a6"></path><path d="M319.29,328.82a.29.29,0,0,1-.28.28h-.13v1.42a.28.28,0,0,1,.28.28.27.27,0,0,1-.28.28.56.56,0,0,1-.56-.56V329.1h-.15a.28.28,0,0,1-.28-.28.27.27,0,0,1,.28-.28h.15v-.73a.28.28,0,0,1,.28-.28.27.27,0,0,1,.28.28v.73H319A.28.28,0,0,1,319.29,328.82Z" style="fill:#a6a6a6"></path><path d="M322.18,329.82v1a.27.27,0,0,1-.53.05,1.15,1.15,0,0,1-.68.22,1.18,1.18,0,0,1-.86-.37,1.32,1.32,0,0,1,0-1.79,1.19,1.19,0,0,1,.86-.38,1.16,1.16,0,0,1,.68.23.28.28,0,0,1,.26-.23.27.27,0,0,1,.27.28Zm-.54,0a.72.72,0,0,0-.2-.53.65.65,0,0,0-.94,0,.76.76,0,0,0-.19.53.75.75,0,0,0,.19.52.65.65,0,0,0,.94,0A.72.72,0,0,0,321.64,329.82Z" style="fill:#a6a6a6"></path><path d="M324.74,328.81a.28.28,0,0,1-.27.27.44.44,0,0,0-.3.1.78.78,0,0,0-.24.24,1.79,1.79,0,0,0-.21.43v1a.27.27,0,0,1-.54,0v-2a.27.27,0,0,1,.54,0v0a.5.5,0,0,1,.11-.1,1,1,0,0,1,.64-.2A.26.26,0,0,1,324.74,328.81Z" style="fill:#a6a6a6"></path><path d="M326.55,328.82a.29.29,0,0,1-.29.28h-.12v1.42a.29.29,0,0,1,.28.28.28.28,0,0,1-.28.28.57.57,0,0,1-.57-.56V329.1h-.14a.28.28,0,0,1-.28-.28.27.27,0,0,1,.28-.28h.14v-.73a.29.29,0,0,1,.57,0v.73h.12A.28.28,0,0,1,326.55,328.82Z" style="fill:#a6a6a6"></path><path d="M327.06,329.81a1.25,1.25,0,0,1,1.24-1.27,1.22,1.22,0,0,1,1.22,1.18v.07a.26.26,0,0,1-.27.21h-1.61a.66.66,0,0,0,.17.33.83.83,0,0,0,.49.23.75.75,0,0,0,.52-.13.3.3,0,0,1,.39,0,.24.24,0,0,1,0,.33,1.28,1.28,0,0,1-.91.33A1.25,1.25,0,0,1,327.06,329.81Zm.55-.25h1.44a.82.82,0,0,0-.75-.53A.71.71,0,0,0,327.61,329.56Z" style="fill:#a6a6a6"></path><path d="M332.63,330.81a.27.27,0,0,1-.28.27.28.28,0,0,1-.27-.22,1.16,1.16,0,0,1-.69.22,1.27,1.27,0,0,1,0-2.54,1.18,1.18,0,0,1,.69.22v-1a.28.28,0,0,1,.55,0v2h0Zm-1.24-1.71a.63.63,0,0,0-.47.2.72.72,0,0,0-.21.52.71.71,0,0,0,.21.5.64.64,0,0,0,.95,0,.71.71,0,0,0,.21-.5.72.72,0,0,0-.21-.52A.64.64,0,0,0,331.39,329.1Z" style="fill:#a6a6a6"></path><rect x="173.31" y="190.48" width="233.53" height="6.18" style="fill:#455a64"></rect><path d="M178.47,193.58a1.54,1.54,0,1,1-1.54-1.54A1.54,1.54,0,0,1,178.47,193.58Z" style="fill:#c7c7c7"></path><path d="M184.73,193.58a1.54,1.54,0,1,1-1.54-1.54A1.54,1.54,0,0,1,184.73,193.58Z" style="fill:#fff"></path><path d="M191,193.58a1.54,1.54,0,1,1-1.53-1.54A1.54,1.54,0,0,1,191,193.58Z" style="fill:#FFC727"></path><path d="M280.08,216.87h-1.43v4.81a.5.5,0,0,1-1,0v-4.81h-1.43a.49.49,0,0,1-.49-.5.49.49,0,0,1,.49-.5h3.85a.49.49,0,0,1,.49.5A.5.5,0,0,1,280.08,216.87Z" style="fill:#263238"></path><path d="M286.22,221.43a.5.5,0,0,1-.31.63l-.2,0h0a.67.67,0,0,1-.35-.1,1,1,0,0,1-.29-.31,2.52,2.52,0,0,1-.19-1.08.72.72,0,0,0-.1-.39,1,1,0,0,0-.27-.26,1.73,1.73,0,0,0-.51-.22h-1.06v2a.5.5,0,0,1-.5.49.49.49,0,0,1-.5-.49v-5.31a.5.5,0,0,1,.5-.5H284a1.93,1.93,0,0,1,1.22,3.41,1.3,1.3,0,0,1,.32.34,1.69,1.69,0,0,1,.29,1,2,2,0,0,0,0,.53A.46.46,0,0,1,286.22,221.43ZM285,217.81a.92.92,0,0,0-.92-.94h-1.11v1.85H284A.92.92,0,0,0,285,217.81Z" style="fill:#263238"></path><path d="M287.68,221.68v-5.31a.5.5,0,0,1,.5-.5h2.94a.5.5,0,0,1,0,1h-2.44v1.65h2.1a.5.5,0,0,1,0,1h-2.1v1.65h2.44a.52.52,0,0,1,.5.51.51.51,0,0,1-.5.49h-2.94A.49.49,0,0,1,287.68,221.68Z" style="fill:#263238"></path><path d="M294,221.68a.5.5,0,0,1-.49.49.48.48,0,0,1-.49-.49v-5.23h0a.48.48,0,0,1,.2-.42.5.5,0,0,1,.68.11l2.91,4v-3.71a.49.49,0,0,1,.48-.49.51.51,0,0,1,.5.49v5.23a.5.5,0,0,1-.5.49.49.49,0,0,1-.37-.18l0-.05-2.88-4Z" style="fill:#263238"></path><path d="M299.51,221.68v-5.31a.49.49,0,0,1,.49-.5h1.07a3.15,3.15,0,0,1,0,6.3H300A.48.48,0,0,1,299.51,221.68Zm1-.51h.56a2.15,2.15,0,0,0,0-4.3h-.56Z" style="fill:#263238"></path></g><g id="freepik--chart-1--inject-76"><rect x="238.99" y="63.28" width="212.67" height="136.61" style="fill:#fff"></rect><path d="M451.66,199.9,239,200.05h-.16v-.15l-.09-136.62V63H239l212.67.16h.1v.09Zm0,0-.1-136.62.1.1L239,63.53l.24-.25-.09,136.62-.15-.16Z" style="fill:#263238"></path><rect x="363.68" y="81.88" width="74.41" height="26" style="fill:#fff"></rect><path d="M438.09,107.88l-74.41.09h-.09v-.09l0-26v-.13h.12l74.41.1h0v0Zm0,0,0-26,0,0-74.41.1.12-.12,0,26-.09-.1Z" style="fill:#263238"></path><path d="M370.63,94.65a2.13,2.13,0,0,1,2.13-2.09,2.24,2.24,0,0,1,1.35.45.35.35,0,0,1,.05.47.33.33,0,0,1-.46.06,1.47,1.47,0,0,0-.94-.32,1.55,1.55,0,0,0-1,.42,1.41,1.41,0,0,0-.43,1,1.36,1.36,0,0,0,.43,1,1.5,1.5,0,0,0,1,.42,1.47,1.47,0,0,0,.94-.32.35.35,0,0,1,.46.07.34.34,0,0,1-.05.46,2.18,2.18,0,0,1-1.35.46A2.13,2.13,0,0,1,370.63,94.65Z" style="fill:#a6a6a6"></path><path d="M375.43,96.32a1.43,1.43,0,0,1-.4-1,1.5,1.5,0,0,1,.4-1,1.37,1.37,0,0,1,1-.44,1.3,1.3,0,0,1,1,.44,1.46,1.46,0,0,1,.41,1,1.39,1.39,0,0,1-.41,1,1.3,1.3,0,0,1-1,.44A1.37,1.37,0,0,1,375.43,96.32Zm.23-1a.94.94,0,0,0,.21.61.8.8,0,0,0,.56.22.79.79,0,0,0,.54-.22.89.89,0,0,0,.22-.61.91.91,0,0,0-.22-.61.8.8,0,0,0-1.1,0A1,1,0,0,0,375.66,95.3Z" style="fill:#a6a6a6"></path><path d="M381.22,95v1.4a.31.31,0,0,1-.3.31.32.32,0,0,1-.32-.31V95a.6.6,0,0,0-.6-.58.59.59,0,0,0-.58.6v1.38s0,0,0,0v0l0,0v0a.35.35,0,0,1-.29.19H379a.31.31,0,0,1-.25-.3V95.06h0v-.9a.31.31,0,0,1,.31-.31.3.3,0,0,1,.28.17,1.24,1.24,0,0,1,1.54.23,1.18,1.18,0,0,1,.91-.4A1.22,1.22,0,0,1,383,95.06v1.38a.31.31,0,0,1-.31.31.32.32,0,0,1-.32-.31V95.06a.59.59,0,0,0-.58-.6A.61.61,0,0,0,381.22,95Z" style="fill:#a6a6a6"></path><path d="M384.31,97.52V95.3h0V94.15a.32.32,0,0,1,.63-.07,1.5,1.5,0,0,1,.79-.24,1.45,1.45,0,0,1,0,2.9,1.36,1.36,0,0,1-.78-.24v1a.32.32,0,0,1-.33.32A.32.32,0,0,1,384.31,97.52ZM385,95.3a.78.78,0,0,0,.23.58.74.74,0,0,0,.55.24.75.75,0,0,0,.55-.24.87.87,0,0,0,.23-.58.92.92,0,0,0-.23-.59.75.75,0,0,0-.55-.24.74.74,0,0,0-.55.24A.82.82,0,0,0,385,95.3Z" style="fill:#a6a6a6"></path><path d="M388.39,92.68a.32.32,0,0,1,.33.32v3.43a.33.33,0,0,1-.65,0V93A.32.32,0,0,1,388.39,92.68Z" style="fill:#a6a6a6"></path><path d="M389.53,95.29A1.44,1.44,0,0,1,391,93.84a1.38,1.38,0,0,1,1.4,1.35v.08a.28.28,0,0,1-.31.23H390.2a.79.79,0,0,0,.19.39,1,1,0,0,0,.56.26,1,1,0,0,0,.61-.15.32.32,0,0,1,.43,0,.26.26,0,0,1,0,.38,1.46,1.46,0,0,1-2.46-1.07Zm.64-.28h1.64a.94.94,0,0,0-.86-.62A.8.8,0,0,0,390.17,95Z" style="fill:#a6a6a6"></path><path d="M394.35,94.16a.33.33,0,0,1-.33.32h-.14V96.1a.32.32,0,0,1,.32.33.32.32,0,0,1-.32.32.65.65,0,0,1-.65-.65V94.48h-.17a.31.31,0,0,1-.31-.32.31.31,0,0,1,.31-.32h.17V93a.32.32,0,0,1,.33-.32.32.32,0,0,1,.32.32v.84H394A.32.32,0,0,1,394.35,94.16Z" style="fill:#a6a6a6"></path><path d="M394.93,95.29a1.43,1.43,0,0,1,1.42-1.45,1.39,1.39,0,0,1,1.4,1.35v0s0,0,0,0a.28.28,0,0,1-.3.23h-1.85a.73.73,0,0,0,.2.39,1,1,0,0,0,.56.26A1,1,0,0,0,397,96a.34.34,0,0,1,.44,0,.28.28,0,0,1,0,.38,1.49,1.49,0,0,1-1,.39A1.45,1.45,0,0,1,394.93,95.29Zm.63-.28h1.65a1,1,0,0,0-.86-.62A.81.81,0,0,0,395.56,95Z" style="fill:#a6a6a6"></path><path d="M401.3,96.43a.32.32,0,0,1-.31.32.31.31,0,0,1-.31-.25,1.44,1.44,0,1,1-.79-2.66,1.41,1.41,0,0,1,.78.24V93a.32.32,0,0,1,.63,0v2.3h0Zm-1.41-2a.77.77,0,0,0-.55.24.87.87,0,0,0-.23.59.82.82,0,0,0,.23.57.77.77,0,0,0,.55.24.73.73,0,0,0,.54-.24.78.78,0,0,0,.24-.57.83.83,0,0,0-.24-.59A.73.73,0,0,0,399.89,94.47Z" style="fill:#a6a6a6"></path><path d="M413.77,94.27a2.85,2.85,0,0,1,.85,2,2.93,2.93,0,0,1-.85,2,2.87,2.87,0,0,1-2,.84h0a2.85,2.85,0,0,1-2-.84.64.64,0,0,1,0-.93.65.65,0,0,1,.93,0,1.57,1.57,0,0,0,2.22,0,1.58,1.58,0,0,0,.46-1.11,1.53,1.53,0,0,0-.46-1.11,1.51,1.51,0,0,0-1.1-.45,1.56,1.56,0,0,0-1.12.45.67.67,0,0,1-.93,0c-.05,0-.08-.11-.13-.15s0,0,0,0a.08.08,0,0,0,0-.05s0-.06,0-.09,0,0,0,0a.34.34,0,0,1,0-.2l.34-3a.75.75,0,0,1,.29-.47l.05,0,0,0a.58.58,0,0,1,.3-.07H414a.66.66,0,1,1,0,1.31H411.1L411,93.53a2.94,2.94,0,0,1,.78-.11A2.84,2.84,0,0,1,413.77,94.27Z" style="fill:#FFC727"></path><path d="M420.79,94.27a2.85,2.85,0,0,1,.85,2,2.89,2.89,0,0,1-.85,2,2.85,2.85,0,0,1-2,.84h0a2.83,2.83,0,0,1-2-.84.64.64,0,0,1,0-.93.65.65,0,0,1,.93,0,1.56,1.56,0,0,0,2.21,0,1.55,1.55,0,0,0,.47-1.11,1.57,1.57,0,0,0-1.57-1.56,1.55,1.55,0,0,0-1.11.45.67.67,0,0,1-.93,0c-.05,0-.08-.11-.13-.15s0,0,0,0a.05.05,0,0,0,0-.05s0-.06,0-.09,0,0,0,0a.67.67,0,0,1,0-.2l.35-3a.71.71,0,0,1,.29-.47l.05,0,0,0a.6.6,0,0,1,.3-.07H421a.66.66,0,1,1,0,1.31h-2.86L418,93.53a3,3,0,0,1,.78-.11A2.82,2.82,0,0,1,420.79,94.27Z" style="fill:#FFC727"></path><path d="M423.42,93.07v0A2,2,0,0,1,425.35,91a1.93,1.93,0,0,1,1.9,2.06v0a2,2,0,0,1-1.93,2.08A1.94,1.94,0,0,1,423.42,93.07Zm2.8,0v0c0-.65-.38-1.18-.9-1.18s-.87.53-.87,1.16v0c0,.66.37,1.19.9,1.19S426.22,93.7,426.22,93.07Zm-1.47,5.43,5.33-7.28a.47.47,0,0,1,.86.24.49.49,0,0,1-.1.3L425.51,99a.48.48,0,0,1-.41.21.45.45,0,0,1-.45-.45A.56.56,0,0,1,424.75,98.5Zm3.58-1.27v0a2,2,0,0,1,1.93-2.08,1.94,1.94,0,0,1,1.9,2.06v0a2,2,0,0,1-1.93,2.08A1.94,1.94,0,0,1,428.33,97.23Zm2.8,0v0c0-.65-.37-1.19-.9-1.19s-.87.54-.87,1.17v0c0,.66.37,1.18.9,1.18S431.13,97.86,431.13,97.23Z" style="fill:#FFC727"></path><rect x="363.68" y="118.59" width="74.41" height="26" style="fill:#fff"></rect><path d="M438.09,144.59l-74.41.09h-.09v-.09l0-26v-.12h.12l74.41.09h0v0Zm0,0,0-26,0,0-74.41.09.12-.12,0,26-.09-.09Z" style="fill:#263238"></path><path d="M370.85,130.12a.32.32,0,0,1,.32-.32.32.32,0,0,1,.32.32v3.43a.32.32,0,0,1-.32.32.32.32,0,0,1-.32-.32Z" style="fill:#a6a6a6"></path><path d="M374.94,132.17v1.39a.31.31,0,1,1-.61,0v-1.39a.61.61,0,0,0-.61-.59.59.59,0,0,0-.58.59v1.39a.13.13,0,0,1,0,.06.32.32,0,0,1-.31.25.31.31,0,0,1-.31-.31v-2.29a.31.31,0,0,1,.31-.31.33.33,0,0,1,.29.18,1.15,1.15,0,0,1,.61-.18A1.22,1.22,0,0,1,374.94,132.17Z" style="fill:#a6a6a6"></path><path d="M375.92,132.09a.35.35,0,0,1,.34-.35h1.09a.35.35,0,0,1,.35.35.35.35,0,0,1-.35.34h-1.09A.34.34,0,0,1,375.92,132.09Z" style="fill:#a6a6a6"></path><path d="M379.87,132.29h-.72v1.26a.32.32,0,0,1-.64,0v-3.43a.32.32,0,0,1,.32-.32h1a1.25,1.25,0,1,1,0,2.49Zm-.72-.65h.72a.6.6,0,1,0,0-1.2h-.72Z" style="fill:#a6a6a6"></path><path d="M383.62,131.27a.32.32,0,0,1-.31.31.54.54,0,0,0-.35.11.9.9,0,0,0-.27.28,1.35,1.35,0,0,0-.23.49v1.1a.32.32,0,0,1-.32.31.31.31,0,0,1-.31-.31v-2.29a.3.3,0,0,1,.31-.3.31.31,0,0,1,.32.3v0l.12-.12a1.29,1.29,0,0,1,.73-.22A.3.3,0,0,1,383.62,131.27Z" style="fill:#a6a6a6"></path><path d="M384.5,133.44a1.43,1.43,0,0,1-.4-1,1.52,1.52,0,0,1,.4-1,1.37,1.37,0,0,1,1-.44,1.3,1.3,0,0,1,1,.44,1.48,1.48,0,0,1,.41,1,1.39,1.39,0,0,1-.41,1,1.28,1.28,0,0,1-1,.45A1.34,1.34,0,0,1,384.5,133.44Zm.23-1a1,1,0,0,0,.21.62.79.79,0,0,0,.56.21A.74.74,0,0,0,386,133a.9.9,0,0,0,.23-.62.83.83,0,0,0-.23-.6.79.79,0,0,0-.53-.22.85.85,0,0,0-.56.22A.91.91,0,0,0,384.73,132.42Z" style="fill:#a6a6a6"></path><path d="M390.46,132.43v1.08a1.4,1.4,0,0,1-1.4,1.4,1.28,1.28,0,0,1-.61-.15.3.3,0,0,1-.14-.41.32.32,0,0,1,.42-.15.73.73,0,0,0,.33.08.79.79,0,0,0,.77-.62,1.4,1.4,0,0,1-.77.23,1.34,1.34,0,0,1-1-.44,1.47,1.47,0,0,1-.41-1,1.56,1.56,0,0,1,.41-1,1.37,1.37,0,0,1,1-.43,1.26,1.26,0,0,1,.78.25.32.32,0,0,1,.31-.25.31.31,0,0,1,.31.31v1.16Zm-.62,0a1,1,0,0,0-.22-.6.73.73,0,0,0-.56-.25.7.7,0,0,0-.53.25.9.9,0,0,0,0,1.2.72.72,0,0,0,.53.23.75.75,0,0,0,.56-.23A1,1,0,0,0,389.84,132.43Z" style="fill:#a6a6a6"></path><path d="M393.48,131.27a.31.31,0,0,1-.3.31.52.52,0,0,0-.35.11.9.9,0,0,0-.27.28,1.64,1.64,0,0,0-.24.49v1.1a.32.32,0,0,1-.63,0v-2.29a.32.32,0,0,1,.63,0v0a1.36,1.36,0,0,1,.12-.12,1.3,1.3,0,0,1,.74-.22A.29.29,0,0,1,393.48,131.27Z" style="fill:#a6a6a6"></path><path d="M393.75,132.41a1.43,1.43,0,0,1,1.42-1.45,1.4,1.4,0,0,1,1.4,1.35v0s0,0,0,0a.28.28,0,0,1-.3.23h-1.85a.73.73,0,0,0,.2.39.89.89,0,0,0,.56.26.92.92,0,0,0,.6-.15.33.33,0,0,1,.44,0,.26.26,0,0,1,0,.37,1.46,1.46,0,0,1-2.46-1.07Zm.63-.28H396a1,1,0,0,0-.86-.62A.82.82,0,0,0,394.38,132.13Z" style="fill:#a6a6a6"></path><path d="M397.35,133a.3.3,0,0,1,.43,0,1.14,1.14,0,0,0,.64.26.86.86,0,0,0,.4-.11.24.24,0,0,0,.1-.18.11.11,0,0,0,0-.06.31.31,0,0,0-.08-.07,1.48,1.48,0,0,0-.46-.16h0a2,2,0,0,1-.51-.15,1.07,1.07,0,0,1-.4-.34.72.72,0,0,1-.1-.36.79.79,0,0,1,.35-.64,1.22,1.22,0,0,1,.71-.22,1.46,1.46,0,0,1,.87.32.33.33,0,0,1,.1.43.31.31,0,0,1-.43.08,1,1,0,0,0-.54-.21.61.61,0,0,0-.35.1.19.19,0,0,0-.09.14s0,0,0,0a.14.14,0,0,0,.07.06,1.06,1.06,0,0,0,.42.14h0a2,2,0,0,1,.54.16.89.89,0,0,1,.42.35.84.84,0,0,1,.11.38.86.86,0,0,1-.37.68,1.37,1.37,0,0,1-.76.23,1.74,1.74,0,0,1-1-.4A.3.3,0,0,1,397.35,133Z" style="fill:#a6a6a6"></path><path d="M400.15,133a.3.3,0,0,1,.43,0,1.11,1.11,0,0,0,.64.26.86.86,0,0,0,.4-.11.24.24,0,0,0,.1-.18.11.11,0,0,0,0-.06.31.31,0,0,0-.08-.07,1.58,1.58,0,0,0-.46-.16h0a2,2,0,0,1-.51-.15,1.07,1.07,0,0,1-.4-.34.72.72,0,0,1-.1-.36.79.79,0,0,1,.35-.64,1.22,1.22,0,0,1,.71-.22,1.46,1.46,0,0,1,.87.32.33.33,0,0,1,.1.43.31.31,0,0,1-.43.08,1,1,0,0,0-.54-.21.61.61,0,0,0-.35.1.19.19,0,0,0-.09.14s0,0,0,0a.16.16,0,0,0,.06.06,1.19,1.19,0,0,0,.43.14h0a2,2,0,0,1,.54.16.82.82,0,0,1,.41.35.73.73,0,0,1,.11.38.85.85,0,0,1-.36.68,1.37,1.37,0,0,1-.76.23,1.74,1.74,0,0,1-1-.4A.3.3,0,0,1,400.15,133Z" style="fill:#a6a6a6"></path><path d="M413.88,131.42a2.82,2.82,0,0,1,.85,2,2.88,2.88,0,0,1-4.92,2,.65.65,0,0,1,0-.93.67.67,0,0,1,.93,0,1.5,1.5,0,0,0,1.1.46,1.59,1.59,0,0,0,1.58-1.57,1.48,1.48,0,0,0-.47-1.1,1.51,1.51,0,0,0-1.1-.47.56.56,0,0,1-.47-.21h0a.67.67,0,0,1,0-.93l1.18-1.21h-1.88a.66.66,0,0,1,0-1.31h3.43a.65.65,0,0,1,.66.65.69.69,0,0,1-.08.32.83.83,0,0,1-.12.16l-1.46,1.51A2.54,2.54,0,0,1,413.88,131.42Z" style="fill:#263238"></path><path d="M416.57,132.29a4.92,4.92,0,0,1,.79-2.78,2.44,2.44,0,0,1,4.3,0,5.33,5.33,0,0,1,0,5.55,2.44,2.44,0,0,1-4.3,0A4.91,4.91,0,0,1,416.57,132.29Zm4.58,0a3.9,3.9,0,0,0-.55-2.07,1.35,1.35,0,0,0-1.08-.71,1.41,1.41,0,0,0-1.11.71,3.9,3.9,0,0,0-.55,2.07,3.85,3.85,0,0,0,.55,2.05,1.43,1.43,0,0,0,1.11.72,1.37,1.37,0,0,0,1.08-.72A3.85,3.85,0,0,0,421.15,132.29Z" style="fill:#263238"></path><path d="M424.69,130.23v0a2,2,0,0,1,1.93-2.08,1.94,1.94,0,0,1,1.91,2.06v0a1.93,1.93,0,1,1-3.84,0Zm2.8,0v0c0-.65-.37-1.19-.89-1.19s-.87.54-.87,1.17v0c0,.66.37,1.18.89,1.18S427.49,130.86,427.49,130.23ZM426,135.65l5.33-7.28a.44.44,0,0,1,.39-.21.46.46,0,0,1,.47.46.52.52,0,0,1-.11.3l-5.33,7.28a.46.46,0,0,1-.4.21.45.45,0,0,1-.46-.45A.55.55,0,0,1,426,135.65Zm3.58-1.26v0a1.92,1.92,0,1,1,3.83,0v0a2,2,0,0,1-1.93,2.07A1.94,1.94,0,0,1,429.61,134.39Zm2.79,0v0c0-.65-.37-1.19-.89-1.19s-.87.54-.87,1.16v0c0,.66.37,1.18.89,1.18S432.4,135,432.4,134.39Z" style="fill:#263238"></path><rect x="363.68" y="155.3" width="74.41" height="26" style="fill:#fff"></rect><path d="M438.09,181.3l-74.41.1h-.09v-.1l0-26v-.12h.12l74.41.1h0v0Zm0,0,0-26,0,0-74.41.1.12-.13,0,26-.09-.09Z" style="fill:#263238"></path><path d="M371.45,170.67a.32.32,0,0,1-.32.32.32.32,0,0,1-.32-.32v-3.38h0a.37.37,0,0,1,.13-.27.31.31,0,0,1,.44.07l1.88,2.6v-2.4a.32.32,0,0,1,.32-.31.33.33,0,0,1,.32.31v3.38a.32.32,0,0,1-.32.32.3.3,0,0,1-.24-.11l0,0-1.86-2.58Z" style="fill:#a6a6a6"></path><path d="M375.49,170.57a1.47,1.47,0,0,1-.4-1,1.49,1.49,0,0,1,.4-1,1.33,1.33,0,0,1,1-.44,1.27,1.27,0,0,1,1,.44,1.46,1.46,0,0,1,.41,1,1.43,1.43,0,0,1-.41,1,1.3,1.3,0,0,1-1,.44A1.37,1.37,0,0,1,375.49,170.57Zm.23-1a1,1,0,0,0,.21.62.8.8,0,0,0,.56.22.75.75,0,0,0,.53-.22.88.88,0,0,0,.23-.62.86.86,0,0,0-.23-.6.79.79,0,0,0-.53-.22.85.85,0,0,0-.56.22A1,1,0,0,0,375.72,169.54Z" style="fill:#a6a6a6"></path><path d="M380.05,168.4a.32.32,0,0,1-.33.32h-.14v1.63a.32.32,0,0,1,0,.64.65.65,0,0,1-.65-.64v-1.63h-.17a.32.32,0,0,1-.32-.32.31.31,0,0,1,.32-.31h.17v-.85a.32.32,0,0,1,.33-.32.32.32,0,0,1,.32.32v.85h.14A.32.32,0,0,1,380.05,168.4Z" style="fill:#a6a6a6"></path><path d="M382.74,170a.31.31,0,0,1,.43,0,1.89,1.89,0,0,0,1.11.45,1.21,1.21,0,0,0,.72-.22.51.51,0,0,0,.25-.42.37.37,0,0,0-.05-.18.56.56,0,0,0-.17-.18,2.32,2.32,0,0,0-.8-.27h0a2.75,2.75,0,0,1-.75-.23,1.2,1.2,0,0,1-.54-.45.87.87,0,0,1-.14-.48,1.08,1.08,0,0,1,.47-.85,1.76,1.76,0,0,1,1-.3,2.3,2.3,0,0,1,1.27.46.28.28,0,0,1,.08.41.29.29,0,0,1-.41.09,1.67,1.67,0,0,0-.94-.37,1.09,1.09,0,0,0-.65.2.46.46,0,0,0-.22.36.31.31,0,0,0,0,.17.8.8,0,0,0,.16.15,2.11,2.11,0,0,0,.73.25h0a3.58,3.58,0,0,1,.8.25,1.25,1.25,0,0,1,.58.48.91.91,0,0,1,.14.49,1.1,1.1,0,0,1-.5.9,1.8,1.8,0,0,1-1.07.34,2.48,2.48,0,0,1-1.49-.59A.3.3,0,0,1,382.74,170Z" style="fill:#a6a6a6"></path><path d="M388,168.4a.33.33,0,0,1-.33.32h-.14v1.63a.32.32,0,0,1,0,.64.65.65,0,0,1-.65-.64v-1.63h-.17a.32.32,0,0,1-.32-.32.31.31,0,0,1,.32-.31h.17v-.85a.32.32,0,0,1,.33-.32.32.32,0,0,1,.32.32v.85h.14A.32.32,0,0,1,388,168.4Z" style="fill:#a6a6a6"></path><path d="M391.26,169.54v1.14a.31.31,0,0,1-.61.06,1.34,1.34,0,0,1-.78.25,1.37,1.37,0,0,1-1-.42,1.5,1.5,0,0,1-.39-1,1.45,1.45,0,0,1,.39-1,1.35,1.35,0,0,1,1.77-.18.31.31,0,0,1,.3-.25.31.31,0,0,1,.31.31Zm-.62,0a.83.83,0,0,0-.23-.59.7.7,0,0,0-.54-.24.68.68,0,0,0-.54.24.82.82,0,0,0-.22.59.87.87,0,0,0,.22.6.71.71,0,0,0,.54.23.73.73,0,0,0,.54-.23A.87.87,0,0,0,390.64,169.54Z" style="fill:#a6a6a6"></path><path d="M394.18,168.39a.31.31,0,0,1-.31.31.61.61,0,0,0-.35.11.87.87,0,0,0-.26.28,1.9,1.9,0,0,0-.24.49v1.1a.32.32,0,0,1-.32.31.31.31,0,0,1-.31-.31v-2.29a.3.3,0,0,1,.31-.3.31.31,0,0,1,.32.3v0a.63.63,0,0,1,.12-.11,1.29,1.29,0,0,1,.73-.23A.3.3,0,0,1,394.18,168.39Z" style="fill:#a6a6a6"></path><path d="M396.25,168.4a.32.32,0,0,1-.33.32h-.14v1.63a.32.32,0,0,1,0,.64.65.65,0,0,1-.65-.64v-1.63H395a.32.32,0,0,1-.32-.32.31.31,0,0,1,.32-.31h.17v-.85a.32.32,0,0,1,.33-.32.32.32,0,0,1,.32.32v.85h.14A.32.32,0,0,1,396.25,168.4Z" style="fill:#a6a6a6"></path><path d="M396.83,169.54a1.43,1.43,0,0,1,1.42-1.45,1.39,1.39,0,0,1,1.4,1.34v0a.15.15,0,0,1,0,.06.29.29,0,0,1-.3.23h-1.85a.74.74,0,0,0,.2.38.84.84,0,0,0,.56.26.94.94,0,0,0,.6-.14.34.34,0,0,1,.44,0,.28.28,0,0,1,0,.38,1.49,1.49,0,0,1-1,.38A1.43,1.43,0,0,1,396.83,169.54Zm.63-.29h1.65a1,1,0,0,0-.86-.61A.82.82,0,0,0,397.46,169.25Z" style="fill:#a6a6a6"></path><path d="M403.2,170.68a.31.31,0,0,1-.62.06,1.44,1.44,0,1,1-.79-2.65,1.41,1.41,0,0,1,.78.24v-1.09a.32.32,0,1,1,.63,0v2.3h0Zm-1.41-2a.77.77,0,0,0-.55.24.78.78,0,0,0-.23.58.8.8,0,0,0,.23.58.77.77,0,0,0,.55.24.73.73,0,0,0,.54-.24.81.81,0,0,0,.24-.58.79.79,0,0,0-.24-.58A.73.73,0,0,0,401.79,168.72Z" style="fill:#a6a6a6"></path><path d="M411.9,166v6.85a.65.65,0,0,1-.65.64.63.63,0,0,1-.64-.64v-5.71l-.47.26a.57.57,0,0,1-.32.1.64.64,0,0,1-.55-.33.63.63,0,0,1,.21-.87l1.43-.85,0,0s0,0,.05,0l.07,0h.31s0,0,.07,0h0l.07,0,.05,0,.05,0s0,0,0,.05,0,0,0,0l0,0v0s0,0,0,0a.11.11,0,0,1,0,.06s0,0,0,.06a.43.43,0,0,0,0,.05s0,.06,0,.08Z" style="fill:#455a64"></path><path d="M417.66,168.59a2.83,2.83,0,0,1,.85,2,2.92,2.92,0,0,1-.85,2,2.84,2.84,0,0,1-2,.85h0a2.82,2.82,0,0,1-2-.85.63.63,0,0,1,0-.93.67.67,0,0,1,.93,0,1.55,1.55,0,0,0,2.22,0,1.58,1.58,0,0,0,.46-1.1,1.55,1.55,0,0,0-.46-1.12,1.51,1.51,0,0,0-1.1-.45,1.56,1.56,0,0,0-1.12.45.65.65,0,0,1-.93,0l-.13-.15s0,0,0,0a.11.11,0,0,0,0-.06s0-.06,0-.08,0,0,0,0a.34.34,0,0,1,0-.2l.34-3a.68.68,0,0,1,.3-.46s0,0,0,0l0,0a.58.58,0,0,1,.3-.07h3.42a.66.66,0,1,1,0,1.31H415l-.14,1.15a2.93,2.93,0,0,1,.78-.1A2.84,2.84,0,0,1,417.66,168.59Z" style="fill:#455a64"></path><path d="M420.28,167.39v0a2,2,0,0,1,1.93-2.08,1.93,1.93,0,0,1,1.9,2.05v0a1.92,1.92,0,1,1-3.83,0Zm2.8,0v0c0-.65-.37-1.19-.89-1.19s-.87.54-.87,1.16v0c0,.66.37,1.18.89,1.18S423.08,168,423.08,167.39Zm-1.46,5.42,5.33-7.28a.44.44,0,0,1,.39-.21.46.46,0,0,1,.47.46.52.52,0,0,1-.11.3l-5.33,7.28a.46.46,0,0,1-.4.21.45.45,0,0,1-.46-.46A.52.52,0,0,1,421.62,172.81Zm3.57-1.26v0a1.92,1.92,0,1,1,3.84,0v0a2,2,0,0,1-1.93,2.08A1.94,1.94,0,0,1,425.19,171.55Zm2.8,0v0c0-.65-.37-1.18-.89-1.18s-.87.53-.87,1.16v0c0,.67.37,1.19.89,1.19S428,172.17,428,171.55Z" style="fill:#455a64"></path><path d="M303.44,131.59l41.17,29.91a49.34,49.34,0,0,1-41.17,21Z" style="fill:#455a64"></path><path d="M303.44,131.59l15.73-48.4a50.89,50.89,0,0,1,32.67,64.13,48.26,48.26,0,0,1-7.23,14.18Z" style="fill:#263238"></path><path d="M303.44,131.59v50.89a50.89,50.89,0,1,1,0-101.78,48.34,48.34,0,0,1,15.73,2.49Z" style="fill:#FFC727"></path><circle cx="303.44" cy="131.59" r="24.26" transform="translate(124.6 409.81) rotate(-80.71)" style="fill:#fff"></circle><path d="M297.25,133.1a3.4,3.4,0,0,1-6.78.35l0,0c0-.26,0-.53,0-.79a8.27,8.27,0,0,1,.49-2.88,4.91,4.91,0,0,1,1.8-2.39,4.08,4.08,0,0,1,2.1-.66.79.79,0,0,1,.82.74.83.83,0,0,1-.76.82,2.51,2.51,0,0,0-1.32.39,2.9,2.9,0,0,0-.88,1,2.42,2.42,0,0,0-.18.36,3.35,3.35,0,0,1,1.34-.28A3.4,3.4,0,0,1,297.25,133.1Zm-1.56,0a1.84,1.84,0,1,0-3.68,0,1.84,1.84,0,1,0,3.68,0Z" style="fill:#263238"></path><path d="M299.43,131.59a6,6,0,0,1,.95-3.35,3,3,0,0,1,5.2,0,6.44,6.44,0,0,1,0,6.7,3,3,0,0,1-5.2,0A6,6,0,0,1,299.43,131.59Zm5.53,0a4.65,4.65,0,0,0-.67-2.49,1.65,1.65,0,0,0-1.3-.86,1.69,1.69,0,0,0-1.33.86,4.88,4.88,0,0,0,0,5,1.71,1.71,0,0,0,1.33.87,1.66,1.66,0,0,0,1.3-.87A4.63,4.63,0,0,0,305,131.59Z" style="fill:#263238"></path><path d="M309.37,131.59a6,6,0,0,1,.95-3.35,3,3,0,0,1,5.2,0,6.5,6.5,0,0,1,0,6.7,3,3,0,0,1-5.2,0A6,6,0,0,1,309.37,131.59Zm5.53,0a4.65,4.65,0,0,0-.67-2.49,1.65,1.65,0,0,0-1.3-.86,1.7,1.7,0,0,0-1.34.86,4.94,4.94,0,0,0,0,5,1.72,1.72,0,0,0,1.34.87,1.66,1.66,0,0,0,1.3-.87A4.63,4.63,0,0,0,314.9,131.59Z" style="fill:#263238"></path><rect x="238.74" y="57.1" width="213.03" height="6.18" style="fill:#455a64"></rect><path d="M243.9,60.19a1.54,1.54,0,1,1-1.53-1.53A1.54,1.54,0,0,1,243.9,60.19Z" style="fill:#c7c7c7"></path><path d="M250.16,60.19a1.53,1.53,0,1,1-1.53-1.53A1.53,1.53,0,0,1,250.16,60.19Z" style="fill:#fff"></path><path d="M256.42,60.19a1.53,1.53,0,1,1-1.53-1.53A1.53,1.53,0,0,1,256.42,60.19Z" style="fill:#FFC727"></path></g><g id="freepik--speech-bubble--inject-76"><path d="M190.38,79.9a21.73,21.73,0,0,1-36.32,13.75l-10.88,1.59,5.44-9.4a21.74,21.74,0,1,1,41.76-5.94Z" style="fill:#fff"></path><path d="M190.38,79.9a21.78,21.78,0,0,1-4.39,11,23.56,23.56,0,0,1-2,2.27,25,25,0,0,1-2.29,1.94,22,22,0,0,1-11.1,4.31,20.28,20.28,0,0,1-3,.06,19.08,19.08,0,0,1-3-.31,21.89,21.89,0,0,1-10.75-5.31l.25.08-10.86,1.67-.79.12.4-.7,5.41-9.42,0,.37a22,22,0,0,1,1.34-19.37,22.28,22.28,0,0,1,6.81-7.25,22,22,0,0,1,9.28-3.49,21.7,21.7,0,0,1,18.21,6A21.87,21.87,0,0,1,190.38,79.9Zm0,0a21.49,21.49,0,0,0-24.65-23.53,21.33,21.33,0,0,0-9,3.55A22.41,22.41,0,0,0,150.24,67a21.59,21.59,0,0,0-2.76,9.2A21.89,21.89,0,0,0,149,85.68l.08.2-.1.17-5.47,9.39-.39-.58L154,93.34l.15,0,.11.1a21.39,21.39,0,0,0,10.41,5.36,18.29,18.29,0,0,0,2.95.36,21,21,0,0,0,3,0,21.42,21.42,0,0,0,5.81-1.27A20.35,20.35,0,0,0,181.66,95,24.5,24.5,0,0,0,184,93.11a23.32,23.32,0,0,0,2-2.24A21.89,21.89,0,0,0,190.38,79.9Z" style="fill:#263238"></path><polygon points="166.21 90.03 156.93 80.64 160.05 77.55 165.47 83.04 176.74 65.38 180.44 67.73 166.21 90.03" style="fill:#FFC727"></polygon></g><g id="freepik--Character--inject-76"><path d="M186,448.08c-2.28.73-67.25-.1-69.7-1.7-1-.59-1.38-10.07-1.57-21.53v-.36c0-2.36,3-42,3-42l43.46.43-4.59,41.63,0,.71s24.73,11.44,27.24,13.49S188.28,447.35,186,448.08Z" style="fill: rgb(173, 99, 89);"></path><path d="M186,448.08c-2.28.73-67.25-.09-69.7-1.7-.94-.59-1.38-10.07-1.57-21.53v-.36c0-.62.19-3.86.51-8.27h42.33l-.92,8.34,0,.71s24.73,11.44,27.24,13.48S188.28,447.35,186,448.08Z" style="fill:#ebebeb"></path><path d="M186,448.07c-1.18.38-18.83.34-36.08,0-3.47-.07-6.92-.15-10.21-.24-12.31-.33-22.47-.84-23.42-1.45s-1.36-9.8-1.55-21.05c0-.16,0-.32,0-.48s0-.25,0-.37h0l41.87.07,0,.72s24.73,11.43,27.24,13.48S188.28,447.34,186,448.07Z" style="fill:#FFC727"></path><path d="M186,448.07c-1.18.38-18.83.34-36.08,0-3.47-.07-6.92-.15-10.21-.24-12.31-.33-22.47-.84-23.42-1.45s-1.36-9.8-1.55-21.05c0-.16,0-.32,0-.48s0-.25,0-.37h0l41.87.07,0,.72s24.73,11.43,27.24,13.48S188.28,447.34,186,448.07Z" style="opacity:0.30000000000000004"></path><path d="M185.3,445.55c-11-.41-55.15-1-66-.6-.08,0-.08.07,0,.07,10.85.64,55.05.9,66,.71C185.53,445.72,185.53,445.56,185.3,445.55Z" style="fill:#263238"></path><path d="M161.32,424.73c-4.3-.85-9.58-.26-12.92,2.77-.12.12,0,.3.18.26a60.43,60.43,0,0,1,12.71-2.48A.28.28,0,0,0,161.32,424.73Z" style="fill:#263238"></path><path d="M164.4,426.65c-4.3-.86-9.58-.27-12.91,2.76-.13.12,0,.3.18.26a60.31,60.31,0,0,1,12.71-2.48A.27.27,0,0,0,164.4,426.65Z" style="fill:#263238"></path><path d="M167.49,428.56c-4.3-.86-9.58-.26-12.91,2.77-.13.11,0,.3.18.25a60.93,60.93,0,0,1,12.71-2.47A.28.28,0,0,0,167.49,428.56Z" style="fill:#263238"></path><path d="M149.93,448.07c-3.47-.07-6.92-.15-10.21-.24-12.31-.33-22.47-.84-23.42-1.45s-1.36-9.8-1.55-21.05c0-.16,0-.32,0-.48s0-.25,0-.37h0C120.51,428.51,140.73,442,149.93,448.07Z" style="opacity:0.1"></path><path d="M159.15,424.7H113.39s-2.58-6-1.79-15.25c2.57-30.12,10.07-94.49,9.79-95.95-.47-2.45-3.23-13.51-6.91-28-1.16-4.52-2.4-9.37-3.7-14.4-3.49-13.6-7.34-28.46-10.69-41.39-5-19.37-9-34.42-9-34.42h39.66s4.62,14.65,10.45,33.72c9.5,31,22.19,73.61,23.45,84,1.54,12.75-.41,70.87-2.41,97.84A43.5,43.5,0,0,1,159.15,424.7Z" style="fill:#37474f"></path><path d="M157.08,416.72c-7.15-.15-5.09-.21-12.24-.28-3.5,0-26.48-.22-29.75.32a.07.07,0,0,0,0,.14c3.27.54,26.25.34,29.75.3,7.15-.07,5.09-.12,12.24-.28A.1.1,0,0,0,157.08,416.72Z" style="fill:#263238"></path><path d="M130.19,306.82c-1.53-6.76-3.83-13.39-5.82-20q-6.09-20.24-12.25-40.45-3.08-10.11-6.18-20.2c-1-3.4-2.09-6.8-3.16-10.2s-2.23-6.61-3.17-10c-.38-1.36-.59-.62-.1,1.12,1,3.49,2,7,3,10.46q3,10.33,6.09,20.67,6.09,20.57,12.29,41.1,3.09,10.29,6.2,20.59a85.45,85.45,0,0,1,2.53,10,45.81,45.81,0,0,1,.41,10.66c-.44,7.15-1.27,14.3-1.93,21.45l-2,21.47q-2,21.38-3.91,42.74c-.17,1.8-.32,3.61-.46,5.42,0,.6.87.56.93,0,1.54-14.08,2.72-28.21,4-42.32l3.93-42.11c.33-3.53.7-7.06.7-10.6A43.21,43.21,0,0,0,130.19,306.82Z" style="fill:#263238"></path><path d="M126.28,195.34c-2.74,21.3-8,61.23-11.8,90.21-9-35.11-23.35-90.21-23.35-90.21Z" style="fill:#263238"></path><path d="M135.58,448.71c-2.27.75-67.25.16-69.71-1.44-.94-.59-1.41-10.06-1.64-21.52,0-.12,0-.24,0-.36,0-2.36-.09-4.8-.1-7.26,0-.34,0-.68,0-1-.15-16.54,1-33.71,1-33.71l42.47.27-1.18,33.39-.05,1.33-.23,6.91,0,.71s24.77,11.35,27.29,13.39S137.86,448,135.58,448.71Z" style="fill: rgb(173, 99, 89);"></path><path d="M135.58,448.71c-2.27.75-67.25.16-69.71-1.44-.94-.59-1.41-10.06-1.64-21.52,0-.12,0-.24,0-.36,0-2.36-.09-4.8-.1-7.26,0-.34,0-.68,0-1l42.33-.05-.05,1.33-.23,6.91,0,.71s24.77,11.35,27.29,13.39S137.86,448,135.58,448.71Z" style="fill:#ebebeb"></path><path d="M135.58,448.71c-2.27.75-67.25.16-69.71-1.44-.94-.59-1.41-10.06-1.64-21.52,0-.12,0-.24,0-.36l41.93-.09,0,.71s24.77,11.35,27.29,13.39S137.86,448,135.58,448.71Z" style="fill:#FFC727"></path><path d="M135.58,448.71c-2.27.75-67.25.16-69.71-1.44-.94-.59-1.41-10.06-1.64-21.52,0-.12,0-.24,0-.36l41.93-.09,0,.71s24.77,11.35,27.29,13.39S137.86,448,135.58,448.71Z" style="opacity:0.30000000000000004"></path><path d="M134.87,446.19c-11-.37-55.15-.83-66-.36-.09,0-.09.07,0,.07,10.85.6,55.06.7,66,.47C135.1,446.36,135.1,446.19,134.87,446.19Z" style="fill:#263238"></path><path d="M110.81,425.46c-4.3-.84-9.58-.23-12.9,2.81-.13.12,0,.3.18.26a60.41,60.41,0,0,1,12.7-2.52A.28.28,0,0,0,110.81,425.46Z" style="fill:#263238"></path><path d="M113.91,427.36c-4.31-.84-9.58-.22-12.9,2.82-.13.11,0,.3.18.25a60.8,60.8,0,0,1,12.7-2.52A.28.28,0,0,0,113.91,427.36Z" style="fill:#263238"></path><path d="M117,429.27c-4.3-.85-9.58-.23-12.9,2.81-.13.12,0,.3.18.26a60.31,60.31,0,0,1,12.7-2.53A.27.27,0,0,0,117,429.27Z" style="fill:#263238"></path><path d="M129.5,195.34a160.48,160.48,0,0,1-5.21,31.28c-.34,1.24-.72,2.46-1.13,3.63a70.45,70.45,0,0,0-11.43,5.88s-.49,18-1,35c-.5,19-1,40.26-.91,44.76.31,12.86,1,69.85.33,96.13a40,40,0,0,1-2.41,13.36l-44.72.2a24,24,0,0,1-3-14.22c2.31-28.58,9.33-90.67,9.29-95.41-.09-9.92,2.25-53.76,4.06-85.74,1.11-19.7,2-34.88,2-34.88Z" style="fill:#37474f"></path><path d="M106.18,417.08c-7.14-.12-5.09-.19-12.24-.23-3.5,0-26.48-.11-29.75.44-.07,0-.07.14,0,.15,3.27.53,26.26.22,29.75.17,7.15-.1,5.1-.15,12.24-.33A.1.1,0,1,0,106.18,417.08Z" style="fill:#263238"></path><path d="M79.4,202.13c-.86,26.1-1.77,52.2-2.93,78.29s-2.73,52.35-4.92,78.47c-1.22,14.59-2.37,35.11-3.94,49.67,0,.1.14.13.15,0,3.4-25.89,5.29-57.9,7-84s2.8-52.15,3.68-78.24c.5-14.76.88-29.52,1.32-44.28C79.73,201.9,79.4,201.92,79.4,202.13Z" style="fill:#263238"></path><path d="M118.37,220.21c.13-1.06.25-2.12.39-3.18.24-1.95.58-3.88.86-5.82.64-4.4,1.31-8.82,2.16-13.19,0-.1.2-.08.19,0-.12,1.76-.27,3.51-.47,5.26s-.31,3.51-.51,5.26c-.39,3.48-.77,7-1.26,10.42-.19,1.33-.94,3.73,1,4.09,1.52.28,2.59-1.24,3-2.5a28.77,28.77,0,0,0,.88-4.8c.26-1.76.49-3.52.68-5.28q.64-5.76,1.42-11.5c0-.11.19-.08.19,0a115.12,115.12,0,0,1-.5,11.74c-.19,1.86-.42,3.73-.68,5.59a19.32,19.32,0,0,1-1.13,5.22,4.2,4.2,0,0,1-3.08,2.63h-.09a.14.14,0,0,1,.06.11c0,.62,0,1.24,0,1.86s-.16,1.23-.25,1.84a12.76,12.76,0,0,1-.42,1.83,8.71,8.71,0,0,1-.32.85,7,7,0,0,1-.47.78c-.06.11-.19,0-.2-.06h0v-.35h0a4.87,4.87,0,0,1,0-.54c0-.3.1-.6.15-.89.11-.59.26-1.19.4-1.77s.25-1.18.38-1.77.32-1.2.44-1.81c0,0,0,0,0-.06a2.76,2.76,0,0,1-2.71-1.59A4.76,4.76,0,0,1,118.37,220.21Z" style="fill:#263238"></path><path d="M108.24,237.18a34,34,0,0,1,4-2.62,40.47,40.47,0,0,1,4.53-2.35c3.05-1.32,6.2-2.23,9.36-3.27.09,0,.15.13.06.16-3,1.22-6,2.83-8.93,4.27q-2.17,1.06-4.4,2c-1.48.66-3,1.42-4.48,2A.12.12,0,0,1,108.24,237.18Z" style="fill:#263238"></path><path d="M84.39,210.55a26.34,26.34,0,0,0,6.37-.85c1-.25,1.91-.56,2.85-.87a7.19,7.19,0,0,0,2.56-1.29c1.45-1.24,2.13-3.21,2.75-4.95a46.84,46.84,0,0,0,1.67-6c0-.1.17-.06.18,0a23.61,23.61,0,0,1-.87,6.84c-.52,1.88-1.22,4-2.74,5.31a10.86,10.86,0,0,1-5.84,2.14,27.24,27.24,0,0,1-6.93-.1A.12.12,0,0,1,84.39,210.55Z" style="fill:#263238"></path><path d="M116.47,138.77c4.33,10,21.31,42,31.95,44.06,7,1.31,35-2.16,39.61-8.92,2-2.95-2.07-23-5.79-22.12s-26.13,4.48-28.91,3.75-24.13-24-32-29.71C107.7,116,114.14,133.41,116.47,138.77Z" style="fill: rgb(173, 99, 89);"></path><path d="M116.47,138.77c4.33,10,20.07,40,30,44.33,4,1.74,17,2.42,25,2,3.88-.22,7.69-4.71,7.69-4.71l-4.42-27.67a16.09,16.09,0,0,0-6.24-1c-6.54.6-13.74,2.82-15.66,2.32-2.77-.73-23.64-22.5-31.53-28.21C107.7,116,114.14,133.41,116.47,138.77Z" style="fill:#FFC727"></path><path d="M173,182.4c-.22-2.4-.33-4.8-.55-7.2s-.47-4.69-.76-7-.59-4.67-.91-7c-.16-1.15-.34-2.29-.53-3.43a29.71,29.71,0,0,0-.6-3.66s-.08-.05-.08,0a29.38,29.38,0,0,0,.24,3.49c.08,1.15.17,2.31.28,3.47.22,2.39.47,4.77.74,7.16s.56,4.75.9,7.13.77,4.73,1.11,7.09A.08.08,0,0,0,173,182.4Z" style="fill:#263238"></path><path d="M152.42,184.42a24,24,0,0,1-6-1.32c-9.92-4.34-25.66-34.37-30-44.33-1.84-4.24-6.26-16-1.29-15.9Z" style="opacity:0.1"></path><path d="M74.27,207.53l44.6-.13,4.39-9.46c.58,0,2.1,9.45,2.1,9.45l9.39,0c0,.38,2.78-3.85,1.89-10.83-2.18-17.27-7.79-51.39-20.36-74.14-1.21-2.17-11.85-4.49-16.54-.15C84,136.87,74.93,176.93,71.61,195.63,70.62,201.22,74.27,207.72,74.27,207.53Z" style="fill:#FFC727"></path><path d="M123.26,197.94a34.66,34.66,0,0,0,.44-8.45c0-1.41-.13-2.82-.21-4.24l-.38-4.22c-.57-5.63-1.4-11.23-2.32-16.82s-2-11.16-3-16.72l-3.29-16.69c.74,2.74,1.41,5.49,2.12,8.24s1.28,5.53,1.92,8.29c1.24,5.54,2.27,11.13,3.25,16.72s1.69,11.24,2.1,16.91l.25,4.26c0,1.42.1,2.84.07,4.26l0,2.14-.14,2.13A19.79,19.79,0,0,1,123.26,197.94Z" style="fill:#263238"></path><path d="M114.87,130.88c-3.28.5-9.67-3.83-11.58-8.61-.13-.33.73-3.51,1.59-7.43.51-2.38,1-5,1.32-7.51.06-.51,15,5.61,15,5.61a39.52,39.52,0,0,0-2.63,9.28,5.87,5.87,0,0,0,0,1c0,.05,0,.11,0,.17C118.65,125.37,118.37,130.35,114.87,130.88Z" style="fill: rgb(173, 99, 89);"></path><path d="M118.57,123.24c0,.05,0,.11,0,.17a10.13,10.13,0,0,1-1.59-.11c-9.07-1.29-10.1-13-10.22-15.9,2.7.72,14.46,5.54,14.46,5.54a39.52,39.52,0,0,0-2.63,9.28A5.82,5.82,0,0,0,118.57,123.24Z" style="fill:#263238"></path><path d="M131.24,82.7s4,6.22,3.3,11.73-3.15,8.14-3.68,8.26S131.24,82.7,131.24,82.7Z" style="fill:#263238"></path><path d="M109,87.16c-3.05,4.9-4.35,21-1.47,25.5,4.16,6.44,13,9.33,19,3.85,5.81-5.31,7.13-26.39,3.73-30.64C125.29,79.6,113.52,79.93,109,87.16Z" style="fill: rgb(173, 99, 89);"></path><path d="M121.57,100.4c0-.05-.09,0-.09.08-.06,1.09-.31,2.33-1.32,2.61,0,0,0,.06,0,.06C121.38,103.09,121.69,101.44,121.57,100.4Z" style="fill:#263238"></path><path d="M120.7,99.18c-1.74-.29-2.18,3.21-.56,3.47S122.16,99.41,120.7,99.18Z" style="fill:#263238"></path><path d="M127.82,101.36s.08.06.07.1c-.17,1.08-.18,2.34.76,2.83,0,0,0,.07,0,.06C127.45,104,127.49,102.35,127.82,101.36Z" style="fill:#263238"></path><path d="M128.93,100.35c1.76.08,1.46,3.59-.17,3.51S127.46,100.27,128.93,100.35Z" style="fill:#263238"></path><path d="M119.52,97.41a13.64,13.64,0,0,0,1.41-.31,2.42,2.42,0,0,0,1.39-.59.75.75,0,0,0,0-.91,1.86,1.86,0,0,0-1.83-.42,2.68,2.68,0,0,0-1.69,1A.8.8,0,0,0,119.52,97.41Z" style="fill:#263238"></path><path d="M130.5,98.75a12.86,12.86,0,0,1-1.34-.53,2.32,2.32,0,0,1-1.27-.81.74.74,0,0,1,.16-.89,1.82,1.82,0,0,1,1.86-.12,2.68,2.68,0,0,1,1.52,1.24A.79.79,0,0,1,130.5,98.75Z" style="fill:#263238"></path><path d="M119.32,110.32c.22.29.44.67.83.75a2.9,2.9,0,0,0,1.2-.12,0,0,0,0,1,0,.06,1.48,1.48,0,0,1-1.45.41,1.15,1.15,0,0,1-.73-1.06C119.2,110.29,119.28,110.28,119.32,110.32Z" style="fill:#263238"></path><path d="M120.86,107.22a3.72,3.72,0,0,0,2.26,2,4.87,4.87,0,0,0,1.32.23h.49a.27.27,0,0,0,.25-.21h0a.41.41,0,0,0,0-.11h0V109c.12-.83.2-2.1.2-2.1.29.19,1.75,1.08,1.78.64a55.82,55.82,0,0,0,0-11.34c0-.12-.2-.12-.2,0-.37,3.49-.12,7-.43,10.51a6.34,6.34,0,0,0-1.67-.74c-.13,0-.11,2.47-.2,2.84a.1.1,0,0,1,0,0,5.19,5.19,0,0,1-3.67-1.66C120.9,107.07,120.81,107.13,120.86,107.22Z" style="fill:#263238"></path><path d="M124,108.91a4.41,4.41,0,0,1-1.93,1.14,2,2,0,0,1-1.2-.07c-.84-.34-.76-1.13-.52-1.79a4.74,4.74,0,0,1,.52-1A5.74,5.74,0,0,0,124,108.91Z" style="fill:#263238"></path><path d="M122.07,110.05a2,2,0,0,1-1.2-.07c-.84-.34-.76-1.13-.52-1.79A2,2,0,0,1,122.07,110.05Z" style="fill:#ff99ba"></path><path d="M107.09,101.82c3.07.09,4.47-7.52,6.22-10.9s6.35-2,9.22-.66c5,2.41,9.4,1.27,11.44-1.58,4.16-5.81.56-11.53-4.14-12.48-7.63-1.54-14.14,4.14-15.85,4.35s-6.7-1.51-9.53,2.26C101.43,86.83,103.12,101.7,107.09,101.82Z" style="fill:#263238"></path><path d="M117.4,87c4.67,1.8,10.84,7.06,15.8,2.72a8.18,8.18,0,0,0,3-7.85,6.66,6.66,0,0,0-5.67-5.12c-.07,0,0-.12,0-.12a6.75,6.75,0,0,1,5.82,4.55,8,8,0,0,1-1.8,7.77c-5.17,6.2-11.88.28-17.2-1.86C117.3,87.1,117.34,87,117.4,87Z" style="fill:#263238"></path><path d="M105.11,81.57a8.51,8.51,0,0,1,5.59-1.19s0,0,0,0A8.89,8.89,0,0,0,105.13,82c-1.84,1.49-2.45,4.08-2.63,6.45-.33,4.44.93,7.76,2.58,11.53.06.14,0,.16-.1,0-2-4.11-3.54-8.36-2.64-13.31A7.66,7.66,0,0,1,105.11,81.57Z" style="fill:#263238"></path><path d="M109.51,100.93s-2.27-5.87-4.85-5.18-1.73,8.59.69,10.24a2.79,2.79,0,0,0,4-.56Z" style="fill: rgb(173, 99, 89);"></path><path d="M105,98a0,0,0,0,0,0,.07c1.68,1.22,2.24,3.19,2.49,5.16a1.54,1.54,0,0,0-2.14-1c-.06,0,0,.11,0,.11a1.72,1.72,0,0,1,1.7,1,8.42,8.42,0,0,1,.51,1.71c0,.18.37.17.35,0v0C108.49,102.67,107.46,98.88,105,98Z" style="fill:#263238"></path><path d="M102,121.17c-.05-.18,1.61-3.52,1.61-3.52L114,124.84l1.19,4.61,1-4.51,2.88-2-.1,3.5s-.92,4.7-4.47,4.59S103.42,126.61,102,121.17Z" style="fill:#FFC727"></path><path d="M114.79,138.6s-4.54-3.82-1.69-6.71,6.72,1.62,6.72,1.62Z" style="fill:#263238"></path><path d="M149.34,162.66h0l1.77,5.53.59,1.82-1.84-.55-5.56-1.71h0l-29.68-29.32,5-5.09,29.67,29.33Z" style="fill:#263238"></path><polygon points="151.11 168.2 151.7 170.02 149.86 169.47 151.11 168.2" style="fill:#37474f"></polygon><rect x="113.39" y="135.48" width="8.36" height="1.66" transform="translate(-62.03 124.13) rotate(-45.34)" style="fill:#37474f"></rect><rect x="114.69" y="136.77" width="8.36" height="1.66" transform="translate(-62.56 125.45) rotate(-45.34)" style="fill:#37474f"></rect><polygon points="116.53 141.16 118.42 139.24 128.11 150.91 127.37 151.57 116.53 141.16" style="fill:#37474f"></polygon><path d="M90.37,133.31c-13,22-25.55,57.23-16.06,62.26,8.66,4.59,34.53-6.78,50.18-16.92,3-1.93-16-27.89-19-25.5a96.33,96.33,0,0,1-9.77,7c-.88.45,3-6.85,5.57-23C104,120.72,97.81,120.72,90.37,133.31Z" style="fill: rgb(173, 99, 89);"></path><path d="M146.41,142.53c.7,3.32-7.64,4.35-7.64,4.35a6.3,6.3,0,0,1,3.18,2.84c1.13,2.33-2,5.11-2,5.11a7.7,7.7,0,0,1,2.89,3.52c.85,2.34-1.94,5.6-1.94,5.6a6.8,6.8,0,0,1,.59,4.7c-1.18,4.19-7.73,5.62-11.6,7.3a88,88,0,0,0-12.43,7l-13.68-28.37s15.45-14,20.41-14.82C128.34,139.07,145.34,137.44,146.41,142.53Z" style="fill: rgb(173, 99, 89);"></path><path d="M138.68,146.8c-4.61-.37-9.3.36-13.82,1.12a.08.08,0,1,0,0,.15c4.48-.8,9.29-.42,13.8-1C138.81,147,138.8,146.81,138.68,146.8Z" style="fill:#263238"></path><path d="M139.73,154.51a11.91,11.91,0,0,0-3.12.47c-1.09.23-2.18.49-3.26.77-2.17.55-4.33,1.15-6.46,1.81a.08.08,0,0,0,0,.16c2.16-.55,4.33-1.06,6.51-1.51,1.09-.23,2.19-.45,3.28-.66a13.88,13.88,0,0,0,3.07-.73A.16.16,0,0,0,139.73,154.51Z" style="fill:#263238"></path><path d="M140.78,164a8.71,8.71,0,0,0-2.79.56c-1,.28-2,.54-3,.8-2,.52-3.94,1-5.93,1.49-.1,0-.07.18,0,.16,2-.45,4.05-.87,6.07-1.34l3-.7a7.77,7.77,0,0,0,2.63-.87A.06.06,0,0,0,140.78,164Z" style="fill:#263238"></path><path d="M96.68,158.84s5.55-19.41,5.66-28.51-5.38-8.7-12,1.66S62.52,186,72,195.18s38.73-5.59,40.89-6.74,4.53-5.53,4.53-5.53l-15-27.34A13,13,0,0,0,98.85,157C97.93,157.7,96.68,158.84,96.68,158.84Z" style="fill:#FFC727"></path><path d="M103,155.62a8.78,8.78,0,0,0-5.39,1.7,42.69,42.69,0,0,0-4.5,4,77.09,77.09,0,0,0-8,9.31c-1.35,1.83-2.57,3.74-3.82,5.64-.05.09.08.15.14.08a93.31,93.31,0,0,1,7.67-9.05c2.65-2.81,5.34-5.6,8.2-8.2a13.17,13.17,0,0,1,2.65-1.92c1-.53,2.08-.75,3.1-1.18A.2.2,0,0,0,103,155.62Z" style="fill:#263238"></path><path d="M102.43,138.84c-.36.76-.77,1.49-1.12,2.26l-.24.51a50.07,50.07,0,0,0,.93-5.15c0-.05-.07-.06-.08,0-.7,1.84-1.17,3.78-1.71,5.66s-1.06,3.72-1.56,5.58a84.81,84.81,0,0,0-2.5,11.24c0,.1.12.1.16,0,1.55-3.59,4.16-14.49,4.5-16.14l.26-.42a10.07,10.07,0,0,0,.6-1.12,14.56,14.56,0,0,0,.82-2.41S102.44,138.8,102.43,138.84Z" style="fill:#263238"></path><path d="M111.56,185.55c-1.1-2.14-2.1-4.33-3.2-6.47s-2.18-4.17-3.32-6.24-2.29-4.11-3.46-6.16c-.58-1-1.17-2-1.77-3a28.19,28.19,0,0,0-1.93-3.17,0,0,0,0,0-.07,0,29.33,29.33,0,0,0,1.53,3.14c.51,1.05,1,2.09,1.55,3.12,1.09,2.13,2.22,4.25,3.36,6.37s2.3,4.2,3.49,6.28,2.48,4.09,3.68,6.16C111.47,185.72,111.6,185.64,111.56,185.55Z" style="fill:#263238"></path><path d="M117.32,182.68c-1,1.11-1.72,2.46-2.71,3.6a11.69,11.69,0,0,1-3.61,2.83,67.45,67.45,0,0,1-9.61,3.72q-4.89,1.63-9.86,3a42,42,0,0,1-10.11,1.82,16.75,16.75,0,0,1-9.73-2.49c-.08-.06-.16.06-.1.12,5.08,4.84,12.48,3.67,18.65,2,3.55-.94,7.07-2,10.55-3.18,1.66-.57,3.31-1.17,5-1.78s3.37-1.19,5-1.9a11,11,0,0,0,4.32-3.17,13.88,13.88,0,0,0,2.48-4.48A.14.14,0,0,0,117.32,182.68Z" style="fill:#263238"></path><polygon points="134.63 183.01 169.99 187.77 183.41 138.62 148.05 133.86 134.63 183.01" style="fill:#263238"></polygon><polygon points="136.37 183.25 171.73 188.01 185.15 138.85 149.79 134.09 136.37 183.25" style="fill:#37474f"></polygon><path d="M165.7,159.48a3.87,3.87,0,0,1-4.21,2.94,3.13,3.13,0,0,1-2.67-3.86,3.86,3.86,0,0,1,4.2-2.94A3.14,3.14,0,0,1,165.7,159.48Z" style="fill:#fff"></path><path d="M184.33,148.38c1.77,3.85,6.29,8.66,6.62,11.79a3.6,3.6,0,0,1-2,3.79s3.1,1.59,2.94,4.48c-.09,1.49-2.54,2.67-2.54,2.67a4.3,4.3,0,0,1,2.13,3.94c-.25,2-2.67,2.91-2.67,2.91s1.71,2.42.8,4.42c-1.85,4.06-19.5,3.84-22.14-2.7-1.23-3,3.07-2.75,3.07-2.75s-6.09-1.91-6.14-5.55,5.53-2.93,5.53-2.93-5.89-1.9-5.56-5.68c.35-3.93,5.8-2.27,5.8-2.27s-3.89-2.7-3-5.54c1.52-4.68,8.87,1.32,12.76.45l2.22-6.37Z" style="fill: rgb(173, 99, 89);"></path><path d="M187.8,154c-1.35-3.79,3.38-8.39,2.6-12.2-1.05-5.16-6.9-.19-8.28,7.26l-.05,6Z" style="fill: rgb(173, 99, 89);"></path><path d="M188.4,178.16a0,0,0,1,1,0,.09,30.63,30.63,0,0,1-18.16-1.31c-.19-.08-.14-.41.08-.36A62.67,62.67,0,0,0,188.4,178.16Z" style="fill:#263238"></path><path d="M189.39,171.14c.07,0,.07.11,0,.13a28.66,28.66,0,0,1-19.72-2.66c-.21-.12-.28-.44,0-.32C173.85,170.28,183.7,171.56,189.39,171.14Z" style="fill:#263238"></path><path d="M169.75,160.11c5.94,3.09,12.28,4,18.91,3.92.08,0,.07.12,0,.14-3.24.9-7.47.49-10.73-.11a17.72,17.72,0,0,1-8.28-3.74C169.55,160.24,169.63,160.05,169.75,160.11Z" style="fill:#263238"></path></g><g id="freepik--Plant--inject-76"><path d="M434.52,340.94c-3.4-3.33-7.79-7.35-13-5.92-4.88,1.35-6.75,6.69-7.63,11.13-1.13,5.72-2,11.5-2.91,17.27s-1.78,11.65-2.62,17.48q-.7,4.94-1.4,9.87l-.69,4.94c-.22,1.62-.49,3.23-.58,4.86,0,.52.79.6.9.1.63-2.74.89-5.6,1.29-8.39s.81-5.6,1.22-8.41q1.23-8.34,2.5-16.69t2.6-16.69c.75-4.72,1.1-10.57,5.28-13.68a8.08,8.08,0,0,1,7.82-.74c2.75,1.05,4.95,3,7.1,5C434.49,341.1,434.58,341,434.52,340.94Z" style="fill:#263238"></path><path d="M429.87,337.54s-6.94-2.5-10.37,2.56.67,18,32.28,25.22a89.16,89.16,0,0,0-7.61-28.56C437.4,322,425.32,327.57,429.87,337.54Z" style="fill:#FFC727"></path><path d="M450,363.22a26.13,26.13,0,0,0-1.59-2.57c-.53-.81-1.06-1.62-1.6-2.43-.41-.61-.82-1.21-1.24-1.81,0-.15,0-.3.06-.45s.07-.55.11-.82c.07-.59.16-1.19.25-1.78s.18-1.17.3-1.76a9,9,0,0,1,.41-1.86c0-.09-.13-.14-.14,0a7.74,7.74,0,0,1-.28,1.05l-.21.79c-.16.6-.3,1.2-.44,1.81s-.23,1.11-.32,1.68q-.07.4-.12.81c-.57-.81-1.14-1.6-1.73-2.38-1.68-2.21-3.46-4.34-5.29-6.42,0,0,0,0,0-.05.17-3.32.09-6.61.82-9.88,0-.09-.11-.14-.13-.05a33.93,33.93,0,0,0-1.18,9.45c-.66-.74-1.33-1.47-2-2.19-1.54-1.66-3.11-3.28-4.71-4.88-.06-.06-.17,0-.1.1,2.66,2.86,5.19,5.85,7.65,8.89a55.43,55.43,0,0,0-5.77.21c-2.15.16-4.28.44-6.4.73-.09,0-.07.16,0,.14a59.7,59.7,0,0,1,6.39-.57c2.07-.09,4.12,0,6.18,0,1.33,1.65,2.65,3.31,3.94,5h-1.74c-1,0-1.93.08-2.88.16a44,44,0,0,0-5.84.87.07.07,0,0,0,0,.14c1.94-.22,3.89-.4,5.84-.47.93,0,1.86,0,2.8,0h1.45a1.77,1.77,0,0,0,.8-.07c.85,1.11,1.7,2.21,2.54,3.32q1,1.32,2,2.67c.67.92,1.27,1.92,2,2.78A.07.07,0,0,0,450,363.22Z" style="fill:#263238"></path><path d="M432.89,344.72a20.1,20.1,0,0,0-3.38-.17c-1.13,0-2.25,0-3.38.07a.08.08,0,1,0,0,.15c1.14-.09,2.28-.11,3.43-.09s2.21.12,3.32.09C432.92,344.77,432.93,344.72,432.89,344.72Z" style="fill:#263238"></path><path d="M442.81,347.26c.13-1.08.27-2.16.5-3.22,0-.1-.13-.14-.14,0-.16,1.06-.37,2.12-.53,3.18-.08.53-.15,1.06-.21,1.6a6.86,6.86,0,0,0-.13,1.5.09.09,0,0,0,.18,0,9.56,9.56,0,0,0,.17-1.51C442.69,348.29,442.75,347.78,442.81,347.26Z" style="fill:#263238"></path><path d="M440.73,335.3c-.27,1.05-.55,2.12-.74,3.19-.1.54-.18,1.08-.26,1.63a6.6,6.6,0,0,0-.1,1.6s.07,0,.08,0a9.45,9.45,0,0,0,.25-1.52c.07-.52.15-1.05.24-1.57.19-1.1.39-2.19.67-3.28C440.89,335.26,440.76,335.21,440.73,335.3Z" style="fill:#263238"></path><path d="M399.58,399.4c-.18-2-.37-4-.58-6q-.63-5.91-1.42-11.79c-.53-3.91-1-7.83-1.66-11.73a29.1,29.1,0,0,0-1.21-5.32,5,5,0,0,0-2.95-3.33c-3.72-1.29-6.22,2.57-7.73,5.3,0,.08.08.14.13.07.9-1.3,3.38-4.92,6.2-4.75,1.9.11,3.42,1.45,4.33,6.19,2.27,11.79,4.32,35.72,4.56,37.28.12.83.71.8.71-.09C400,403.31,399.75,401.35,399.58,399.4Z" style="fill:#263238"></path><path d="M385,365.1s3.25-11.48-3.94-5.74c-12,9.55-12.38,30.33-12.38,30.33s21.26-12.35,23.9-20.49C396.56,357.07,385,365.1,385,365.1Z" style="fill:#FFC727"></path><path d="M389.06,370.73c-1.67.34-3.36.56-5,.81l-2.4.33c-.54.08-1.08.13-1.62.19,1.58-2.18,3.18-4.35,4.7-6.58.05-.08-.08-.17-.15-.1a48.09,48.09,0,0,0-3.55,4.1c-.31-.89-.63-1.78-.94-2.66s-.75-2.05-1-3.11a.07.07,0,0,0-.14,0c.29,1.05.5,2.12.78,3.18s.58,2,.94,3c-.78,1-1.53,2.05-2.25,3.1-.37-1-.82-2-1.14-3.1,0-.09-.17,0-.14,0,.38,1.17.59,2.38.94,3.55-.48.71-1,1.43-1.44,2.15-.86,1.32-1.66,2.67-2.46,4a.32.32,0,0,0-.18.33c-1.35,2.32-2.62,4.68-3.88,7.06a.07.07,0,1,0,.12.06c1.26-2.35,2.67-4.63,4.13-6.88h0a3.1,3.1,0,0,1,.7-.14l.73-.16c.55-.12,1.1-.26,1.64-.39,1.08-.27,2.15-.52,3.24-.71.09,0,.05-.16,0-.14-1.29.24-2.58.39-3.88.54-.61.07-1.22.15-1.83.25h-.09c.76-1.16,1.54-2.31,2.32-3.45s1.57-2.23,2.37-3.33c.73-.11,1.46-.3,2.19-.44l2.47-.48c1.65-.33,3.29-.7,4.94-1C389.19,370.86,389.15,370.72,389.06,370.73Z" style="fill:#263238"></path><path d="M376.28,371.87c-.1-.31-.19-.61-.28-.92a18,18,0,0,1-.49-1.92c0-.09-.16,0-.14,0,.14.65.29,1.29.44,1.94a13,13,0,0,0,.56,1.91.13.13,0,0,0,.24-.08C376.52,372.51,376.39,372.19,376.28,371.87Z" style="fill:#263238"></path><path d="M391.24,368.08c-1,.14-1.95.21-2.93.3s-1.95.22-2.92.36c-.05,0-.05.09,0,.09,1-.07,1.95-.14,2.93-.27s1.94-.27,2.92-.34C391.33,368.21,391.33,368.06,391.24,368.08Z" style="fill:#263238"></path><path d="M415.22,384.87c-.37-8.45-.91-16.88-1.76-25.3-.42-4.19-.9-8.38-1.49-12.55a87.8,87.8,0,0,0-2.42-12.14,23.32,23.32,0,0,0-4-8.57,9.2,9.2,0,0,0-8.17-3.57c-3.7.46-6.68,2.79-9.25,5.32-2.89,2.84-5.54,5.94-8.21,9-.68.77-1.35,1.54-2,2.32a.07.07,0,0,0,.11.1c2.61-3,5.33-5.93,8.17-8.72,2.63-2.58,5.34-5.4,9-6.47a9.28,9.28,0,0,1,5.22-.12,8.29,8.29,0,0,1,3.56,2.26,18.69,18.69,0,0,1,4,7.81c2.27,7.77,3.09,15.91,3.93,23.93s1.44,16.32,1.85,24.51.73,16.46,1.52,24.66c.1,1,.23,2,.36,3,.09.68,1.14.68,1.09,0C416,401.85,415.6,393.37,415.22,384.87Z" style="fill:#263238"></path><path d="M387.62,329s4.83-8.93-.87-11.8S362,335.62,356.39,366.77c0,0,30.82-13.64,41.28-27.23S396.28,323,387.62,329Z" style="fill:#FFC727"></path><path d="M392.15,336.24c-3.46,0-6.91-.26-10.38-.24l2-2.23a32.28,32.28,0,0,0,2.71-3.14c.05-.08-.05-.18-.12-.12a24.19,24.19,0,0,0-2.63,2.63c-.86.92-1.73,1.84-2.59,2.77q-2,2.16-3.91,4.35c0-.14,0-.28,0-.42,0-.61,0-1.21,0-1.82l0-3.52c0-2.38,0-4.78.19-7.16,0-.09-.14-.08-.15,0-.16,2.39-.41,4.77-.53,7.16-.05,1.17-.08,2.35-.1,3.52,0,.61,0,1.22,0,1.82,0,.33,0,.68,0,1-.21.23-.42.45-.62.68-2.76,3.16-5.39,6.43-7.95,9.75,0-.18,0-.37,0-.55l-.12-1.1c-.09-.79-.2-1.58-.32-2.37s-.23-1.49-.36-2.23-.34-1.68-.4-2.52a.07.07,0,1,0-.14,0,23.59,23.59,0,0,1,.29,2.53l.21,2.29.21,2.29c0,.36.08.73.11,1.1,0,.18.05.36.07.54a1,1,0,0,0,.15.44l-1.32,1.72c-1.74,2.31-3.46,4.65-5.18,7-.05.07,0,.17.11.1,1.62-2.12,3.29-4.2,5-6.26,1.27.05,2.56,0,3.83-.06s2.67,0,4,0a.07.07,0,1,0,0-.14l-4,.05c-1.21,0-2.46-.06-3.68,0,1.49-1.81,3-3.61,4.51-5.41l1.66-2a7.22,7.22,0,0,0,1.54.05H376c1.13,0,2.27,0,3.41-.05,2.35,0,4.71-.11,7.06-.12a.07.07,0,0,0,0-.14c-2.36,0-4.72-.13-7.07-.19-1.14,0-2.28-.07-3.42-.08l-1.82,0c-.35,0-.7,0-1.05,0,1.29-1.53,2.58-3.07,3.88-4.6a.19.19,0,0,0,.07-.08q1.89-2.24,3.8-4.46l.53-.6c3.59.11,7.18-.13,10.77-.06A.07.07,0,1,0,392.15,336.24Z" style="fill:#263238"></path><path d="M390.38,342.36h-.84c-.08,0-.08.13,0,.13h.84C390.48,342.51,390.47,342.36,390.38,342.36Z" style="fill:#263238"></path><path d="M388.52,342.37c-1.11,0-2.22,0-3.33-.07l-1.67-.05a6.1,6.1,0,0,0-1.54,0,.05.05,0,0,0,0,.1,5.73,5.73,0,0,0,1.55.11l1.66,0h3.33C388.61,342.52,388.61,342.38,388.52,342.37Z" style="fill:#263238"></path><path d="M378.83,352.78a46,46,0,0,0-6.82-.62,0,0,0,0,0,0,0c2.27.22,4.54.34,6.78.7C378.88,352.93,378.92,352.79,378.83,352.78Z" style="fill:#263238"></path><path d="M369.56,342.86c0-.2,0-.4-.07-.59-.06-.45-.13-.9-.2-1.34-.13-.85-.28-1.69-.44-2.53,0-.08-.15-.06-.14,0,.11.87.2,1.74.28,2.62,0,.43.08.86.11,1.28a3.9,3.9,0,0,0,.18,1.23c.06.13.26.07.3-.05A1.54,1.54,0,0,0,369.56,342.86Z" style="fill:#263238"></path><path d="M414.92,317.51c-1.1-2.05-2.51-4.77-5.26-4.6-2.27.15-3.3,2.47-3.78,4.38-1.51,5.94-1.61,12.19-1.9,18.27-.62,12.85-1.18,25.71-1.26,38.57,0,3.56,0,7.13,0,10.69s0,7.3.26,10.93a.27.27,0,0,0,.53,0c0-3.11-.09-6.22-.1-9.33s0-6.07.06-9.1q.15-9.23.49-18.44c.23-6.11.5-12.21.76-18.32l.39-9.15c.14-3,.26-5.92.6-8.86.19-1.65.44-3.29.78-4.91a6.85,6.85,0,0,1,1.42-3.3,3.11,3.11,0,0,1,4-.29,8.56,8.56,0,0,1,2.85,3.55C414.84,317.66,415,317.59,414.92,317.51Z" style="fill:#263238"></path><path d="M414.17,316.53s-2.26-8,2.75-4c8.33,6.65,8.62,21.13,8.62,21.13s-14.81-8.6-16.65-14.28C406.15,310.93,414.17,316.53,414.17,316.53Z" style="fill:#FFC727"></path><path d="M422.43,327.73c-.14-.23-.28-.44-.42-.66a5.14,5.14,0,0,0,0-.68c0-.35,0-.69,0-1,0-.68,0-1.35.07-2,0-.09-.14-.09-.14,0,0,.67-.06,1.33-.08,2l0,1c0,.13,0,.27,0,.42q-.87-1.35-1.8-2.67c-.18-.26-.37-.5-.55-.76a16.23,16.23,0,0,1,0-2.61c0-.93,0-1.85,0-2.78,0-.1-.14-.09-.14,0,0,1-.07,1.93-.12,2.9a17.83,17.83,0,0,0-.06,2.07c-1.43-1.95-2.95-3.82-4.48-5.69-.05-.06-.16,0-.11.09.95,1.2,1.86,2.44,2.75,3.69-1.74-.41-3.51-.64-5.28-.9-.09,0-.13.13,0,.14,1.88.28,3.72.75,5.57,1.16h0c.71,1,1.42,2,2.11,3,.29.4.56.82.84,1.23h-.08l-.57-.08c-.41,0-.82-.08-1.24-.11-.85-.07-1.7-.11-2.56-.16a.07.07,0,0,0,0,.14c.85,0,1.68.09,2.52.18l1.32.16.58.07.17,0,1.43,2.1c.83,1.24,1.58,2.56,2.47,3.75.06.08.15,0,.12-.07A39.59,39.59,0,0,0,422.43,327.73Z" style="fill:#263238"></path><path d="M418.74,318.7v-.94a14.28,14.28,0,0,1,.08-2,.07.07,0,1,0-.14,0c0,.65-.07,1.29-.1,1.94,0,.32,0,.65,0,1,0,.15,0,.3,0,.45a1.41,1.41,0,0,0,0,.46.06.06,0,0,0,.12,0,1.25,1.25,0,0,0,0-.43Z" style="fill:#263238"></path><path d="M416.91,322a15.75,15.75,0,0,0-1.67-.17c-.61-.06-1.22-.11-1.83-.19-.1,0-.12.14,0,.14,1.17.08,2.33.29,3.51.33A.06.06,0,0,0,416.91,322Z" style="fill:#263238"></path><path d="M421.56,322.06c0,.06,0,.23,0,.3v1.38a1.34,1.34,0,0,0,0,.49,0,0,0,0,0,.06,0,.48.48,0,0,0,0-.24v-.25c0-.19,0-.38,0-.56v-.82c0-.08,0-.24,0-.31S421.46,321.92,421.56,322.06Z" style="fill:#263238"></path><path d="M415.26,360.17c-3.11-2.34-5.91-5.7-10.1-5.87-3.46-.13-5.88,2.47-7.26,5.37a31.12,31.12,0,0,0-1.7,4.77q-.93,3.29-1.76,6.6-1.63,6.51-2.78,13.14c-.42,2.46-.81,4.93-1.12,7.4a62.31,62.31,0,0,0-.73,7.58.39.39,0,0,0,.77.09c.43-2.07.6-4.21.91-6.3s.62-4.21,1-6.31c.71-4.19,1.53-8.38,2.48-12.52.89-3.92,1.77-7.9,3-11.72.9-2.73,2.36-5.93,5.31-6.91,4.5-1.5,8.58,2.31,11.87,4.78C415.24,360.32,415.34,360.22,415.26,360.17Z" style="fill:#263238"></path><path d="M412,357.93s-2.87-8.2,1.28-9.81c6.23-2.41,22.51,15.94,19.33,44.05,0,0-12.59-6.93-21.88-14.73s-11.67-18-7.58-20.62S412,357.93,412,357.93Z" style="fill:#FFC727"></path><path d="M430.77,386.14a22.7,22.7,0,0,0-1.52-2.83c-.53-1-1.07-1.92-1.62-2.87-1.09-1.85-2.16-3.7-3.27-5.54l-.54-.89c0-.11,0-.22.07-.33l.18-.81c.14-.61.24-1.23.36-1.84.22-1.2.43-2.42.76-3.6a.07.07,0,0,0-.14,0c-.26,1.2-.64,2.39-1,3.56-.18.58-.37,1.16-.52,1.75-.05.2-.1.4-.16.6-1.33-2.19-2.7-4.38-4.16-6.49a2.88,2.88,0,0,0,.14-.9l.15-1.23c.11-.93.21-1.85.35-2.77a52.06,52.06,0,0,1,1-5.39c0-.09-.11-.11-.14,0-.45,1.77-.93,3.54-1.27,5.33-.16.88-.32,1.77-.44,2.65-.06.45-.1.89-.15,1.34,0,.13,0,.27,0,.4-.45-.63-.9-1.27-1.38-1.89-1.43-1.89-2.92-3.74-4.43-5.58-.05-.07-.17,0-.11.08a98.31,98.31,0,0,1,7.07,10.34c.42.66.82,1.32,1.23,2l-.41-.05c-.52-.06-1.06-.1-1.58-.14-1.06-.1-2.12-.2-3.18-.28-2.12-.17-4.25-.3-6.36-.53-.09,0-.12.13,0,.14,2.15.25,4.28.59,6.41.9,1.05.15,2.1.29,3.16.42a11.89,11.89,0,0,0,2.42.25q1.26,2,2.5,4.06a3.5,3.5,0,0,0-.56,0h-3c-1.37,0-2.73,0-4.1,0-.09,0-.07.14,0,.14,1.38,0,2.76.09,4.14.16l2,.12,1,.07a2.07,2.07,0,0,0,.86,0l2.13,3.45c.65,1.06,1.31,2.12,2,3.17a26,26,0,0,0,2.14,3.21A.08.08,0,0,0,430.77,386.14Z" style="fill:#263238"></path><path d="M424.77,363.42a20.58,20.58,0,0,1-.56,2.68c-.24.91-.5,1.81-.8,2.7a.09.09,0,1,0,.17.06c.28-.89.53-1.78.75-2.69s.36-1.82.58-2.72C424.93,363.36,424.78,363.33,424.77,363.42Z" style="fill:#263238"></path><path d="M415.52,368.92a1,1,0,0,0-.68-.26l-1.19-.16-2.21-.27c-1.54-.18-3.07-.33-4.61-.52-.09,0-.11.13,0,.14,1.45.17,2.88.39,4.33.58l2.12.28,1,.11a3.49,3.49,0,0,1,1.16.2C415.52,369.06,415.57,369,415.52,368.92Z" style="fill:#263238"></path><path d="M424.75,381.28c-.73-.06-1.46-.09-2.18-.11l-1.1,0-.53,0a3.82,3.82,0,0,1-.68,0c-.11,0-.12.16,0,.14a3.43,3.43,0,0,1,.64,0l.57,0,1.1.06c.73,0,1.45.09,2.18.09C424.83,381.43,424.83,381.28,424.75,381.28Z" style="fill:#263238"></path><path d="M429.18,378.13c.09-.41.16-.82.24-1.23l.45-2.43a.07.07,0,1,0-.14,0l-.54,2.37c-.09.39-.18.79-.26,1.18,0,.19-.07.37-.11.55a1.65,1.65,0,0,0-.07.58c0,.07.11.12.16.05A2.81,2.81,0,0,0,429.18,378.13Z" style="fill:#263238"></path><polygon points="421.67 402.36 420.97 413.98 418.9 448.28 387.49 448.28 385.42 413.98 384.72 402.36 421.67 402.36" style="fill:#455a64"></polygon><polygon points="421.67 402.36 420.97 413.98 385.42 413.98 384.72 402.36 421.67 402.36" style="fill:#263238"></polygon><rect x="381.47" y="394.14" width="43.44" height="11.63" style="fill:#455a64"></rect></g></svg>