<svg width="1024" height="1024" viewBox="0 0 1024 1024" fill="none" xmlns="http://www.w3.org/2000/svg">
<rect width="1024" height="1024" fill="#343434"/>
<path d="M629.966 528.072C637.891 535.965 648.64 540.4 659.848 540.4C671.055 540.4 681.804 535.965 689.729 528.072C697.654 520.178 702.106 509.472 702.106 498.308C702.106 487.145 697.654 476.439 689.729 468.545L652.38 431.364C660.305 439.255 671.053 443.687 682.258 443.685C687.807 443.684 693.301 442.595 698.427 440.479C703.552 438.363 708.209 435.262 712.132 431.354C716.055 427.445 719.166 422.805 721.289 417.699C723.411 412.593 724.503 407.12 724.502 401.593C724.501 396.067 723.407 390.594 721.283 385.489C719.159 380.383 716.046 375.745 712.122 371.837L652.38 312.332C644.458 304.438 633.712 300.002 622.506 300C611.301 299.998 600.553 304.43 592.628 312.321C584.703 320.212 580.25 330.915 580.248 342.077C580.246 353.238 584.695 363.944 592.617 371.837L555.29 334.636C551.366 330.727 546.707 327.627 541.58 325.511C536.453 323.396 530.958 322.307 525.408 322.307C519.859 322.307 514.364 323.396 509.237 325.511C504.11 327.627 499.451 330.727 495.527 334.636C491.603 338.544 488.49 343.184 486.366 348.291C484.243 353.398 483.15 358.872 483.15 364.399C483.15 369.927 484.243 375.4 486.366 380.507C488.49 385.614 491.603 390.254 495.527 394.163L629.966 528.072Z" stroke="#FFDC14" stroke-width="22" stroke-linecap="round" stroke-linejoin="round"/>
<path d="M311.063 711.807L340.638 682.349" stroke="#FFDC14" stroke-width="22" stroke-linecap="round" stroke-linejoin="round"/>
<path d="M682.863 341.474L712.438 312.016" stroke="#FFDC14" stroke-width="22" stroke-linecap="round" stroke-linejoin="round"/>
<path d="M371.122 711.492C379.044 719.386 389.79 723.821 400.996 723.823C406.544 723.824 412.039 722.737 417.165 720.623C422.292 718.509 426.95 715.41 430.874 711.503C434.798 707.595 437.911 702.956 440.035 697.851C442.159 692.745 443.253 687.273 443.254 681.747C443.255 676.22 442.163 670.747 440.041 665.641C437.919 660.535 434.807 655.895 430.884 651.986L468.212 689.188C476.137 697.082 486.886 701.516 498.094 701.516C509.301 701.516 520.05 697.082 527.975 689.188C535.9 681.294 540.352 670.588 540.352 659.424C540.352 648.261 535.9 637.555 527.975 629.661L393.535 495.752C389.611 491.843 384.953 488.743 379.826 486.627C374.699 484.512 369.204 483.423 363.654 483.423C358.105 483.423 352.61 484.512 347.483 486.627C342.355 488.743 337.697 491.843 333.773 495.752C329.849 499.66 326.736 504.301 324.612 509.407C322.489 514.514 321.396 519.988 321.396 525.515C321.396 531.043 322.489 536.516 324.612 541.623C326.736 546.73 329.849 551.37 333.773 555.279L371.122 592.459C363.197 584.568 352.449 580.136 341.244 580.138C330.038 580.14 319.292 584.576 311.37 592.47C303.448 600.364 298.998 611.069 299 622.23C299.002 633.392 303.455 644.095 311.38 651.986L371.122 711.492Z" stroke="#FFDC14" stroke-width="22" stroke-linecap="round" stroke-linejoin="round"/>
<path d="M461.051 562.412L562.451 461.412" stroke="#FFDC14" stroke-width="22" stroke-linecap="round" stroke-linejoin="round"/>
</svg>
