<svg width="1024" height="1024" viewBox="0 0 1024 1024" fill="none" xmlns="http://www.w3.org/2000/svg">
<rect width="1024" height="1024" fill="white"/>
<path d="M614.715 544.66C622.641 552.554 633.389 556.988 644.597 556.988C655.804 556.988 666.553 552.554 674.478 544.66C682.403 536.766 686.855 526.06 686.855 514.897C686.855 503.733 682.403 493.027 674.478 485.133L637.129 447.952C645.054 455.843 655.802 460.275 667.007 460.273C672.556 460.272 678.05 459.183 683.176 457.067C688.301 454.951 692.958 451.851 696.881 447.942C700.804 444.033 703.915 439.393 706.038 434.287C708.16 429.181 709.252 423.708 709.251 418.182C709.25 412.655 708.156 407.183 706.032 402.077C703.908 396.972 700.795 392.333 696.871 388.426L637.129 328.92C629.207 321.026 618.461 316.59 607.255 316.588C596.05 316.586 585.302 321.018 577.377 328.909C569.452 336.8 564.999 347.504 564.997 358.665C564.995 369.827 569.444 380.532 577.366 388.426L540.039 351.224C536.115 347.315 531.456 344.215 526.329 342.1C521.202 339.984 515.707 338.896 510.157 338.896C504.608 338.896 499.113 339.984 493.986 342.1C488.859 344.215 484.2 347.315 480.276 351.224C476.352 355.133 473.239 359.773 471.115 364.88C468.992 369.986 467.899 375.46 467.899 380.987C467.899 386.515 468.992 391.988 471.115 397.095C473.239 402.202 476.352 406.842 480.276 410.751L614.715 544.66Z" stroke="black" stroke-width="22" stroke-linecap="round" stroke-linejoin="round"/>
<path d="M295.812 728.396L325.388 698.938" stroke="black" stroke-width="22" stroke-linecap="round" stroke-linejoin="round"/>
<path d="M667.612 358.062L697.187 328.604" stroke="black" stroke-width="22" stroke-linecap="round" stroke-linejoin="round"/>
<path d="M355.871 728.08C363.793 735.974 374.539 740.41 385.745 740.412C391.293 740.413 396.788 739.325 401.914 737.211C407.041 735.097 411.699 731.998 415.623 728.091C419.547 724.184 422.66 719.545 424.784 714.439C426.908 709.334 428.002 703.861 428.003 698.335C428.004 692.808 426.912 687.335 424.79 682.229C422.668 677.123 419.556 672.483 415.633 668.574L452.961 705.776C460.886 713.67 471.635 718.104 482.843 718.104C494.05 718.104 504.799 713.67 512.724 705.776C520.649 697.882 525.101 687.176 525.101 676.013C525.101 664.849 520.649 654.143 512.724 646.249L378.284 512.34C374.36 508.431 369.702 505.331 364.575 503.216C359.448 501.1 353.953 500.012 348.403 500.012C342.854 500.012 337.359 501.1 332.232 503.216C327.104 505.331 322.446 508.431 318.522 512.34C314.598 516.249 311.485 520.889 309.361 525.996C307.238 531.102 306.145 536.576 306.145 542.103C306.145 547.631 307.238 553.104 309.361 558.211C311.485 563.318 314.598 567.958 318.522 571.867L355.871 609.048C347.946 601.157 337.198 596.725 325.993 596.727C314.787 596.729 304.041 601.164 296.119 609.058C288.197 616.952 283.747 627.657 283.749 638.818C283.751 649.98 288.204 660.683 296.129 668.574L355.871 728.08Z" stroke="black" stroke-width="22" stroke-linecap="round" stroke-linejoin="round"/>
<path d="M445.8 579L547.2 478" stroke="black" stroke-width="22" stroke-linecap="round" stroke-linejoin="round"/>
</svg>
